<mxfile host="app.diagrams.net" modified="2021-11-11T19:30:13.098Z" agent="5.0 (Windows)" etag="YXQfbnZccs5evOsFXavc" version="14.6.6" type="github">
  <diagram id="PvejWZYkNbfzt8Bsji3T" name="Page-1">
    <mxGraphModel dx="2370" dy="1253" grid="1" gridSize="10" guides="1" tooltips="1" connect="1" arrows="1" fold="1" page="1" pageScale="1" pageWidth="3300" pageHeight="4681" math="0" shadow="0">
      <root>
        <mxCell id="0" />
        <mxCell id="1" parent="0" />
        <mxCell id="G3aUP-0yOjeHawGO9L9T-1" value="&lt;p style=&quot;margin: 0px ; margin-top: 4px ; text-align: center ; text-decoration: underline&quot;&gt;&lt;b&gt;alice:Player&lt;/b&gt;&lt;/p&gt;&lt;hr&gt;&lt;p style=&quot;margin: 0px ; margin-left: 8px&quot;&gt;name = &quot;alice&quot;&lt;br&gt;men = man00, man01, man02&lt;br&gt;&lt;/p&gt;&lt;p style=&quot;margin: 0px ; margin-left: 8px&quot;&gt;vortexes = vortexD2,vortexE3,vortexG4&lt;br&gt;&lt;/p&gt;&lt;p style=&quot;margin: 0px ; margin-left: 8px&quot;&gt;game= aliceVsBob&lt;br&gt;&lt;/p&gt;" style="verticalAlign=top;align=left;overflow=fill;fontSize=12;fontFamily=Helvetica;html=1;" vertex="1" parent="1">
          <mxGeometry x="910" y="1370" width="230" height="110" as="geometry" />
        </mxCell>
        <mxCell id="G3aUP-0yOjeHawGO9L9T-2" value="&lt;p style=&quot;margin: 0px ; margin-top: 4px ; text-align: center ; text-decoration: underline&quot;&gt;&lt;b&gt;aliceVsBob:Nine men&#39;s morris&lt;br&gt;&lt;/b&gt;&lt;/p&gt;&lt;hr&gt;&lt;p style=&quot;margin: 0px ; margin-left: 8px&quot;&gt;players = alice,bob&lt;br&gt;men = men00, men01, ... , men13&lt;/p&gt;&lt;p style=&quot;margin: 0px ; margin-left: 8px&quot;&gt;board = board&lt;/p&gt;&lt;p style=&quot;margin: 0px ; margin-left: 8px&quot;&gt;phase = flying&lt;br&gt;&lt;/p&gt;&lt;p style=&quot;margin: 0px ; margin-left: 8px&quot;&gt;turn = bob&lt;br&gt;&lt;/p&gt;&lt;div&gt;&amp;nbsp;&amp;nbsp; winner = null&lt;br&gt;&lt;/div&gt;&lt;div&gt;&lt;br&gt;&lt;/div&gt;" style="verticalAlign=top;align=left;overflow=fill;fontSize=12;fontFamily=Helvetica;html=1;" vertex="1" parent="1">
          <mxGeometry x="1580" y="760" width="240" height="160" as="geometry" />
        </mxCell>
        <mxCell id="G3aUP-0yOjeHawGO9L9T-3" value="&lt;p style=&quot;margin: 0px ; margin-top: 4px ; text-align: center ; text-decoration: underline&quot;&gt;&lt;b&gt;bob:Player&lt;/b&gt;&lt;/p&gt;&lt;hr&gt;&lt;p style=&quot;margin: 0px ; margin-left: 8px&quot;&gt;name = &quot;bob&quot;&lt;br&gt;men = men09, men10, ... , men13&lt;br&gt;vortexes = vortexA1,vortexA4, vortexA7&lt;/p&gt;&lt;p style=&quot;margin: 0px ; margin-left: 8px&quot;&gt;vortexB2, vortexB6&lt;br&gt;&lt;/p&gt;&lt;p style=&quot;margin: 0px ; margin-left: 8px&quot;&gt;game=aliceVsBob&lt;br&gt;&lt;/p&gt;" style="verticalAlign=top;align=left;overflow=fill;fontSize=12;fontFamily=Helvetica;html=1;" vertex="1" parent="1">
          <mxGeometry x="2250" y="1340" width="240" height="110" as="geometry" />
        </mxCell>
        <mxCell id="G3aUP-0yOjeHawGO9L9T-4" value="&lt;p style=&quot;margin: 0px ; margin-top: 4px ; text-align: center ; text-decoration: underline&quot;&gt;&lt;b&gt;man00:Man&lt;/b&gt;&lt;/p&gt;&lt;hr&gt;&lt;p style=&quot;margin: 0px ; margin-left: 8px&quot;&gt;player = alice&lt;br&gt;game = aliceVsBob&lt;br&gt;pos&amp;nbsp; = vortexD2&lt;br&gt;&lt;/p&gt;&lt;p style=&quot;margin: 0px ; margin-left: 8px&quot;&gt;&lt;br&gt;&lt;/p&gt;" style="verticalAlign=top;align=left;overflow=fill;fontSize=12;fontFamily=Helvetica;html=1;" vertex="1" parent="1">
          <mxGeometry x="600" y="1560" width="151" height="110" as="geometry" />
        </mxCell>
        <mxCell id="G3aUP-0yOjeHawGO9L9T-5" value="&lt;p style=&quot;margin: 0px ; margin-top: 4px ; text-align: center ; text-decoration: underline&quot;&gt;&lt;b&gt;men01:Man&lt;/b&gt;&lt;/p&gt;&lt;hr&gt;&lt;p style=&quot;margin: 0px ; margin-left: 8px&quot;&gt;player = alice&lt;br&gt;game = aliceVsBob&lt;br&gt;pos&amp;nbsp; = vortexE3&lt;br&gt;&lt;/p&gt;&lt;p style=&quot;margin: 0px ; margin-left: 8px&quot;&gt;&lt;br&gt;&lt;/p&gt;" style="verticalAlign=top;align=left;overflow=fill;fontSize=12;fontFamily=Helvetica;html=1;" vertex="1" parent="1">
          <mxGeometry x="960" y="1560" width="151" height="110" as="geometry" />
        </mxCell>
        <mxCell id="G3aUP-0yOjeHawGO9L9T-6" value="&lt;p style=&quot;margin: 0px ; margin-top: 4px ; text-align: center ; text-decoration: underline&quot;&gt;&lt;b&gt;man02:Man&lt;/b&gt;&lt;/p&gt;&lt;hr&gt;&lt;p style=&quot;margin: 0px ; margin-left: 8px&quot;&gt;player = alice&lt;br&gt;game = aliceVsBob&lt;br&gt;pos&amp;nbsp; = vortexG4&lt;br&gt;&lt;/p&gt;&lt;p style=&quot;margin: 0px ; margin-left: 8px&quot;&gt;&lt;br&gt;&lt;/p&gt;" style="verticalAlign=top;align=left;overflow=fill;fontSize=12;fontFamily=Helvetica;html=1;" vertex="1" parent="1">
          <mxGeometry x="1320" y="1560" width="151" height="110" as="geometry" />
        </mxCell>
        <mxCell id="G3aUP-0yOjeHawGO9L9T-7" value="&lt;p style=&quot;margin: 0px ; margin-top: 4px ; text-align: center ; text-decoration: underline&quot;&gt;&lt;b&gt;man09:Man&lt;/b&gt;&lt;/p&gt;&lt;hr&gt;&lt;p style=&quot;margin: 0px ; margin-left: 8px&quot;&gt;player = bob&lt;br&gt;game = aliceVsBob&lt;br&gt;pos&amp;nbsp; = vortexA1&lt;br&gt;&lt;/p&gt;&lt;p style=&quot;margin: 0px ; margin-left: 8px&quot;&gt;&lt;br&gt;&lt;/p&gt;" style="verticalAlign=top;align=left;overflow=fill;fontSize=12;fontFamily=Helvetica;html=1;" vertex="1" parent="1">
          <mxGeometry x="1940" y="1540" width="151" height="110" as="geometry" />
        </mxCell>
        <mxCell id="G3aUP-0yOjeHawGO9L9T-8" value="&lt;p style=&quot;margin: 0px ; margin-top: 4px ; text-align: center ; text-decoration: underline&quot;&gt;&lt;b&gt;man10:Man&lt;/b&gt;&lt;/p&gt;&lt;hr&gt;&lt;p style=&quot;margin: 0px ; margin-left: 8px&quot;&gt;player = bob&lt;br&gt;game = aliceVsBob&lt;/p&gt;&lt;p style=&quot;margin: 0px ; margin-left: 8px&quot;&gt;pos&amp;nbsp; = vortexA4&lt;/p&gt;&lt;p style=&quot;margin: 0px ; margin-left: 8px&quot;&gt;&lt;br&gt;&lt;/p&gt;&lt;p style=&quot;margin: 0px ; margin-left: 8px&quot;&gt;&lt;br&gt;&lt;/p&gt;" style="verticalAlign=top;align=left;overflow=fill;fontSize=12;fontFamily=Helvetica;html=1;" vertex="1" parent="1">
          <mxGeometry x="2294.5" y="1530" width="151" height="110" as="geometry" />
        </mxCell>
        <mxCell id="G3aUP-0yOjeHawGO9L9T-9" value="&lt;p style=&quot;margin: 0px ; margin-top: 4px ; text-align: center ; text-decoration: underline&quot;&gt;&lt;b&gt;man11:Man&lt;/b&gt;&lt;/p&gt;&lt;hr&gt;&lt;p style=&quot;margin: 0px ; margin-left: 8px&quot;&gt;player = bob&lt;br&gt;game = aliceVsBob&lt;br&gt;&lt;/p&gt;&lt;p style=&quot;margin: 0px ; margin-left: 8px&quot;&gt;pos&amp;nbsp; = VortexA7&lt;br&gt;&lt;/p&gt;&lt;p style=&quot;margin: 0px ; margin-left: 8px&quot;&gt;&lt;br&gt;&lt;/p&gt;" style="verticalAlign=top;align=left;overflow=fill;fontSize=12;fontFamily=Helvetica;html=1;" vertex="1" parent="1">
          <mxGeometry x="2670" y="1540" width="151" height="110" as="geometry" />
        </mxCell>
        <mxCell id="G3aUP-0yOjeHawGO9L9T-10" value="&lt;p style=&quot;margin: 0px ; margin-top: 4px ; text-align: center ; text-decoration: underline&quot;&gt;&lt;b&gt;man12:Man&lt;/b&gt;&lt;/p&gt;&lt;hr&gt;&lt;p style=&quot;margin: 0px ; margin-left: 8px&quot;&gt;player = bob&lt;br&gt;game = aliceVsBob&lt;br&gt;&lt;/p&gt;&lt;p style=&quot;margin: 0px ; margin-left: 8px&quot;&gt;pos&amp;nbsp; = vortexB2&lt;/p&gt;&lt;p style=&quot;margin: 0px ; margin-left: 8px&quot;&gt;&lt;br&gt;&lt;/p&gt;&lt;p style=&quot;margin: 0px ; margin-left: 8px&quot;&gt;&lt;br&gt;&lt;/p&gt;" style="verticalAlign=top;align=left;overflow=fill;fontSize=12;fontFamily=Helvetica;html=1;" vertex="1" parent="1">
          <mxGeometry x="1940" y="1730" width="151" height="110" as="geometry" />
        </mxCell>
        <mxCell id="G3aUP-0yOjeHawGO9L9T-11" value="&lt;p style=&quot;margin: 0px ; margin-top: 4px ; text-align: center ; text-decoration: underline&quot;&gt;&lt;b&gt;man13:Man&lt;/b&gt;&lt;/p&gt;&lt;hr&gt;&lt;p style=&quot;margin: 0px ; margin-left: 8px&quot;&gt;player = bob&lt;br&gt;game = aliceVsBob&lt;br&gt;pos&amp;nbsp; = vortexB6&lt;br&gt;&lt;/p&gt;&lt;p style=&quot;margin: 0px ; margin-left: 8px&quot;&gt;&lt;br&gt;&lt;/p&gt;" style="verticalAlign=top;align=left;overflow=fill;fontSize=12;fontFamily=Helvetica;html=1;" vertex="1" parent="1">
          <mxGeometry x="2300" y="1740" width="151" height="110" as="geometry" />
        </mxCell>
        <mxCell id="G3aUP-0yOjeHawGO9L9T-12" value="" style="endArrow=none;html=1;edgeStyle=orthogonalEdgeStyle;entryX=0;entryY=0.5;entryDx=0;entryDy=0;" edge="1" parent="1" target="G3aUP-0yOjeHawGO9L9T-2">
          <mxGeometry relative="1" as="geometry">
            <mxPoint x="1020" y="1366" as="sourcePoint" />
            <mxPoint x="1720" y="1280" as="targetPoint" />
            <Array as="points">
              <mxPoint x="1020" y="1366" />
              <mxPoint x="1020" y="840" />
            </Array>
          </mxGeometry>
        </mxCell>
        <mxCell id="G3aUP-0yOjeHawGO9L9T-13" value="&lt;div&gt;players&lt;/div&gt;" style="edgeLabel;resizable=0;html=1;align=left;verticalAlign=bottom;" connectable="0" vertex="1" parent="G3aUP-0yOjeHawGO9L9T-12">
          <mxGeometry x="-1" relative="1" as="geometry">
            <mxPoint x="5" as="offset" />
          </mxGeometry>
        </mxCell>
        <mxCell id="G3aUP-0yOjeHawGO9L9T-14" value="" style="endArrow=none;html=1;edgeStyle=orthogonalEdgeStyle;entryX=0.5;entryY=0;entryDx=0;entryDy=0;" edge="1" parent="1" target="G3aUP-0yOjeHawGO9L9T-3">
          <mxGeometry relative="1" as="geometry">
            <mxPoint x="1820" y="840" as="sourcePoint" />
            <mxPoint x="2120" y="1280" as="targetPoint" />
            <Array as="points">
              <mxPoint x="2360" y="840" />
              <mxPoint x="2360" y="1340" />
            </Array>
          </mxGeometry>
        </mxCell>
        <mxCell id="G3aUP-0yOjeHawGO9L9T-15" value="game" style="edgeLabel;resizable=0;html=1;align=left;verticalAlign=bottom;" connectable="0" vertex="1" parent="G3aUP-0yOjeHawGO9L9T-14">
          <mxGeometry x="-1" relative="1" as="geometry">
            <mxPoint x="10" as="offset" />
          </mxGeometry>
        </mxCell>
        <mxCell id="G3aUP-0yOjeHawGO9L9T-16" value="game" style="edgeLabel;resizable=0;html=1;align=right;verticalAlign=bottom;" connectable="0" vertex="1" parent="G3aUP-0yOjeHawGO9L9T-14">
          <mxGeometry x="1" relative="1" as="geometry">
            <mxPoint x="-800" y="-500" as="offset" />
          </mxGeometry>
        </mxCell>
        <mxCell id="G3aUP-0yOjeHawGO9L9T-17" value="&lt;div&gt;players&lt;/div&gt;" style="edgeLabel;resizable=0;html=1;align=right;verticalAlign=bottom;" connectable="0" vertex="1" parent="1">
          <mxGeometry x="2350" y="1340" as="geometry" />
        </mxCell>
        <mxCell id="G3aUP-0yOjeHawGO9L9T-18" value="" style="endArrow=none;html=1;edgeStyle=orthogonalEdgeStyle;" edge="1" parent="1">
          <mxGeometry relative="1" as="geometry">
            <mxPoint x="1036" y="1480" as="sourcePoint" />
            <mxPoint x="1036" y="1557.0000000000005" as="targetPoint" />
            <Array as="points">
              <mxPoint x="1036" y="1557" />
            </Array>
          </mxGeometry>
        </mxCell>
        <mxCell id="G3aUP-0yOjeHawGO9L9T-19" value="&lt;div&gt;,men&lt;/div&gt;" style="edgeLabel;resizable=0;html=1;align=left;verticalAlign=bottom;" connectable="0" vertex="1" parent="G3aUP-0yOjeHawGO9L9T-18">
          <mxGeometry x="-1" relative="1" as="geometry">
            <mxPoint x="4" y="80" as="offset" />
          </mxGeometry>
        </mxCell>
        <mxCell id="G3aUP-0yOjeHawGO9L9T-20" value="players" style="edgeLabel;resizable=0;html=1;align=right;verticalAlign=bottom;" connectable="0" vertex="1" parent="G3aUP-0yOjeHawGO9L9T-18">
          <mxGeometry x="1" relative="1" as="geometry">
            <mxPoint x="-6" y="-57" as="offset" />
          </mxGeometry>
        </mxCell>
        <mxCell id="G3aUP-0yOjeHawGO9L9T-21" value="" style="endArrow=none;html=1;edgeStyle=orthogonalEdgeStyle;exitX=0.5;exitY=0;exitDx=0;exitDy=0;entryX=-0.004;entryY=0.1;entryDx=0;entryDy=0;entryPerimeter=0;" edge="1" parent="1" source="G3aUP-0yOjeHawGO9L9T-4" target="G3aUP-0yOjeHawGO9L9T-1">
          <mxGeometry relative="1" as="geometry">
            <mxPoint x="670" y="1435" as="sourcePoint" />
            <mxPoint x="910" y="1424.5" as="targetPoint" />
            <Array as="points">
              <mxPoint x="676" y="1380" />
            </Array>
          </mxGeometry>
        </mxCell>
        <mxCell id="G3aUP-0yOjeHawGO9L9T-22" value="&lt;div&gt;,men&lt;/div&gt;" style="edgeLabel;resizable=0;html=1;align=left;verticalAlign=bottom;" connectable="0" vertex="1" parent="G3aUP-0yOjeHawGO9L9T-21">
          <mxGeometry x="-1" relative="1" as="geometry" />
        </mxCell>
        <mxCell id="G3aUP-0yOjeHawGO9L9T-23" value="players" style="edgeLabel;resizable=0;html=1;align=right;verticalAlign=bottom;" connectable="0" vertex="1" parent="G3aUP-0yOjeHawGO9L9T-21">
          <mxGeometry x="1" relative="1" as="geometry">
            <mxPoint x="-9" as="offset" />
          </mxGeometry>
        </mxCell>
        <mxCell id="G3aUP-0yOjeHawGO9L9T-24" value="" style="endArrow=none;html=1;edgeStyle=orthogonalEdgeStyle;exitX=0.5;exitY=0;exitDx=0;exitDy=0;" edge="1" parent="1">
          <mxGeometry relative="1" as="geometry">
            <mxPoint x="1390" y="1560" as="sourcePoint" />
            <mxPoint x="1140" y="1380" as="targetPoint" />
            <Array as="points">
              <mxPoint x="1390" y="1380" />
              <mxPoint x="1140" y="1380" />
            </Array>
          </mxGeometry>
        </mxCell>
        <mxCell id="G3aUP-0yOjeHawGO9L9T-25" value="&lt;div&gt;,men&lt;/div&gt;" style="edgeLabel;resizable=0;html=1;align=left;verticalAlign=bottom;" connectable="0" vertex="1" parent="G3aUP-0yOjeHawGO9L9T-24">
          <mxGeometry x="-1" relative="1" as="geometry" />
        </mxCell>
        <mxCell id="G3aUP-0yOjeHawGO9L9T-26" value="players" style="edgeLabel;resizable=0;html=1;align=right;verticalAlign=bottom;" connectable="0" vertex="1" parent="G3aUP-0yOjeHawGO9L9T-24">
          <mxGeometry x="1" relative="1" as="geometry">
            <mxPoint x="40" as="offset" />
          </mxGeometry>
        </mxCell>
        <mxCell id="G3aUP-0yOjeHawGO9L9T-27" value="" style="endArrow=none;html=1;edgeStyle=orthogonalEdgeStyle;exitX=0.5;exitY=0;exitDx=0;exitDy=0;" edge="1" parent="1">
          <mxGeometry relative="1" as="geometry">
            <mxPoint x="2740" y="1540" as="sourcePoint" />
            <mxPoint x="2490" y="1360" as="targetPoint" />
            <Array as="points">
              <mxPoint x="2740" y="1360" />
              <mxPoint x="2490" y="1360" />
            </Array>
          </mxGeometry>
        </mxCell>
        <mxCell id="G3aUP-0yOjeHawGO9L9T-28" value="&lt;div&gt;,men&lt;/div&gt;" style="edgeLabel;resizable=0;html=1;align=left;verticalAlign=bottom;" connectable="0" vertex="1" parent="G3aUP-0yOjeHawGO9L9T-27">
          <mxGeometry x="-1" relative="1" as="geometry" />
        </mxCell>
        <mxCell id="G3aUP-0yOjeHawGO9L9T-29" value="players" style="edgeLabel;resizable=0;html=1;align=right;verticalAlign=bottom;" connectable="0" vertex="1" parent="G3aUP-0yOjeHawGO9L9T-27">
          <mxGeometry x="1" relative="1" as="geometry">
            <mxPoint x="40" as="offset" />
          </mxGeometry>
        </mxCell>
        <mxCell id="G3aUP-0yOjeHawGO9L9T-30" value="" style="endArrow=none;html=1;edgeStyle=orthogonalEdgeStyle;exitX=0.5;exitY=0;exitDx=0;exitDy=0;entryX=-0.004;entryY=0.1;entryDx=0;entryDy=0;entryPerimeter=0;" edge="1" parent="1">
          <mxGeometry relative="1" as="geometry">
            <mxPoint x="2015.5" y="1540" as="sourcePoint" />
            <mxPoint x="2249.08" y="1361" as="targetPoint" />
            <Array as="points">
              <mxPoint x="2016" y="1360" />
            </Array>
          </mxGeometry>
        </mxCell>
        <mxCell id="G3aUP-0yOjeHawGO9L9T-31" value="&lt;div&gt;,men&lt;/div&gt;" style="edgeLabel;resizable=0;html=1;align=left;verticalAlign=bottom;" connectable="0" vertex="1" parent="G3aUP-0yOjeHawGO9L9T-30">
          <mxGeometry x="-1" relative="1" as="geometry" />
        </mxCell>
        <mxCell id="G3aUP-0yOjeHawGO9L9T-32" value="players" style="edgeLabel;resizable=0;html=1;align=right;verticalAlign=bottom;" connectable="0" vertex="1" parent="G3aUP-0yOjeHawGO9L9T-30">
          <mxGeometry x="1" relative="1" as="geometry">
            <mxPoint x="-9" as="offset" />
          </mxGeometry>
        </mxCell>
        <mxCell id="G3aUP-0yOjeHawGO9L9T-33" value="" style="endArrow=none;html=1;edgeStyle=orthogonalEdgeStyle;exitX=1;exitY=0.5;exitDx=0;exitDy=0;" edge="1" parent="1">
          <mxGeometry relative="1" as="geometry">
            <mxPoint x="2091" y="1795" as="sourcePoint" />
            <mxPoint x="2250" y="1400" as="targetPoint" />
            <Array as="points">
              <mxPoint x="2140" y="1795" />
              <mxPoint x="2140" y="1400" />
              <mxPoint x="2250" y="1400" />
            </Array>
          </mxGeometry>
        </mxCell>
        <mxCell id="G3aUP-0yOjeHawGO9L9T-34" value="&lt;div&gt;,men&lt;/div&gt;" style="edgeLabel;resizable=0;html=1;align=left;verticalAlign=bottom;" connectable="0" vertex="1" parent="G3aUP-0yOjeHawGO9L9T-33">
          <mxGeometry x="-1" relative="1" as="geometry" />
        </mxCell>
        <mxCell id="G3aUP-0yOjeHawGO9L9T-35" value="players" style="edgeLabel;resizable=0;html=1;align=right;verticalAlign=bottom;" connectable="0" vertex="1" parent="G3aUP-0yOjeHawGO9L9T-33">
          <mxGeometry x="1" relative="1" as="geometry">
            <mxPoint x="-9" as="offset" />
          </mxGeometry>
        </mxCell>
        <mxCell id="G3aUP-0yOjeHawGO9L9T-36" value="" style="endArrow=none;html=1;edgeStyle=orthogonalEdgeStyle;exitX=1.02;exitY=0.66;exitDx=0;exitDy=0;exitPerimeter=0;entryX=0.894;entryY=0.997;entryDx=0;entryDy=0;entryPerimeter=0;" edge="1" parent="1">
          <mxGeometry relative="1" as="geometry">
            <mxPoint x="2450" y="1812.9299999999994" as="sourcePoint" />
            <mxPoint x="2455.619999999999" y="1450" as="targetPoint" />
            <Array as="points">
              <mxPoint x="2480" y="1813.33" />
              <mxPoint x="2480" y="1470.33" />
              <mxPoint x="2456" y="1470.33" />
            </Array>
          </mxGeometry>
        </mxCell>
        <mxCell id="G3aUP-0yOjeHawGO9L9T-37" value="&lt;div&gt;,men&lt;/div&gt;" style="edgeLabel;resizable=0;html=1;align=left;verticalAlign=bottom;" connectable="0" vertex="1" parent="G3aUP-0yOjeHawGO9L9T-36">
          <mxGeometry x="-1" relative="1" as="geometry">
            <mxPoint y="-3" as="offset" />
          </mxGeometry>
        </mxCell>
        <mxCell id="G3aUP-0yOjeHawGO9L9T-38" value="players" style="edgeLabel;resizable=0;html=1;align=right;verticalAlign=bottom;" connectable="0" vertex="1" parent="G3aUP-0yOjeHawGO9L9T-36">
          <mxGeometry x="1" relative="1" as="geometry">
            <mxPoint x="-6" y="20" as="offset" />
          </mxGeometry>
        </mxCell>
        <mxCell id="G3aUP-0yOjeHawGO9L9T-39" value="" style="endArrow=none;html=1;edgeStyle=orthogonalEdgeStyle;entryX=0.5;entryY=0;entryDx=0;entryDy=0;" edge="1" parent="1" target="G3aUP-0yOjeHawGO9L9T-8">
          <mxGeometry relative="1" as="geometry">
            <mxPoint x="2369.17" y="1450" as="sourcePoint" />
            <mxPoint x="2369.17" y="1527" as="targetPoint" />
            <Array as="points" />
          </mxGeometry>
        </mxCell>
        <mxCell id="G3aUP-0yOjeHawGO9L9T-40" value="&lt;div&gt;,men&lt;/div&gt;" style="edgeLabel;resizable=0;html=1;align=left;verticalAlign=bottom;" connectable="0" vertex="1" parent="G3aUP-0yOjeHawGO9L9T-39">
          <mxGeometry x="-1" relative="1" as="geometry">
            <mxPoint x="4" y="80" as="offset" />
          </mxGeometry>
        </mxCell>
        <mxCell id="G3aUP-0yOjeHawGO9L9T-41" value="players" style="edgeLabel;resizable=0;html=1;align=right;verticalAlign=bottom;" connectable="0" vertex="1" parent="G3aUP-0yOjeHawGO9L9T-39">
          <mxGeometry x="1" relative="1" as="geometry">
            <mxPoint y="-60" as="offset" />
          </mxGeometry>
        </mxCell>
        <mxCell id="G3aUP-0yOjeHawGO9L9T-42" value="&lt;p style=&quot;margin: 0px ; margin-top: 4px ; text-align: center ; text-decoration: underline&quot;&gt;&lt;b&gt;board:Board&lt;/b&gt;&lt;/p&gt;&lt;hr&gt;&lt;p style=&quot;margin: 0px ; margin-left: 8px&quot;&gt;game= aliceVsBob&lt;br&gt;vortexes = a1, a4, a7, b2, b4, b6, c3, c4, c5,&lt;/p&gt;&lt;p style=&quot;margin: 0px ; margin-left: 8px&quot;&gt;d7, d6, d5, d3, d2, d1, e5, e4, e3, f2, f4, f6,&lt;/p&gt;&amp;nbsp;&amp;nbsp; g1, g4, g7 " style="verticalAlign=top;align=left;overflow=fill;fontSize=12;fontFamily=Helvetica;html=1;" vertex="1" parent="1">
          <mxGeometry x="1470" y="2170" width="370" height="280" as="geometry" />
        </mxCell>
        <mxCell id="G3aUP-0yOjeHawGO9L9T-43" value="&lt;p style=&quot;margin: 0px ; margin-top: 4px ; text-align: center ; text-decoration: underline&quot;&gt;&lt;b&gt;vortexA1:Vortex&lt;/b&gt;&lt;/p&gt;&lt;hr&gt;&lt;p style=&quot;margin: 0px ; margin-left: 8px&quot;&gt;man = bob&lt;br&gt;board = board&lt;/p&gt;&lt;p style=&quot;margin: 0px ; margin-left: 8px&quot;&gt;adjacenzy = vortexA4,&lt;/p&gt;&lt;p style=&quot;margin: 0px ; margin-left: 8px&quot;&gt;VortexD1&lt;br&gt;&lt;/p&gt;" style="verticalAlign=top;align=left;overflow=fill;fontSize=12;fontFamily=Helvetica;html=1;" vertex="1" parent="1">
          <mxGeometry x="370" y="2500" width="160" height="90" as="geometry" />
        </mxCell>
        <mxCell id="G3aUP-0yOjeHawGO9L9T-44" value="&lt;p style=&quot;margin: 0px ; margin-top: 4px ; text-align: center ; text-decoration: underline&quot;&gt;&lt;b&gt;vortexA4:Vortex&lt;/b&gt;&lt;/p&gt;&lt;hr&gt;&lt;p style=&quot;margin: 0px ; margin-left: 8px&quot;&gt;man = man10&lt;br&gt;board = board&lt;br&gt;adjacenzy = vortexA1,&lt;/p&gt;&lt;p style=&quot;margin: 0px ; margin-left: 8px&quot;&gt;vortexA7,vortexB4&lt;br&gt;&lt;/p&gt;" style="verticalAlign=top;align=left;overflow=fill;fontSize=12;fontFamily=Helvetica;html=1;" vertex="1" parent="1">
          <mxGeometry x="680" y="2500" width="160" height="90" as="geometry" />
        </mxCell>
        <mxCell id="G3aUP-0yOjeHawGO9L9T-45" value="&lt;p style=&quot;margin: 0px ; margin-top: 4px ; text-align: center ; text-decoration: underline&quot;&gt;&lt;b&gt;vortexA7:Vortex&lt;/b&gt;&lt;/p&gt;&lt;hr&gt;&lt;p style=&quot;margin: 0px ; margin-left: 8px&quot;&gt;man = man11&lt;br&gt;board = board&lt;br&gt;adjacenzy = vortexA4,&lt;/p&gt;&lt;p style=&quot;margin: 0px ; margin-left: 8px&quot;&gt;vortexD7&lt;br&gt;&lt;/p&gt;" style="verticalAlign=top;align=left;overflow=fill;fontSize=12;fontFamily=Helvetica;html=1;" vertex="1" parent="1">
          <mxGeometry x="1000" y="2500" width="160" height="90" as="geometry" />
        </mxCell>
        <mxCell id="G3aUP-0yOjeHawGO9L9T-46" value="&lt;p style=&quot;margin: 0px ; margin-top: 4px ; text-align: center ; text-decoration: underline&quot;&gt;&lt;b&gt;vortexB2:Vortex&lt;/b&gt;&lt;/p&gt;&lt;hr&gt;&lt;p style=&quot;margin: 0px ; margin-left: 8px&quot;&gt;man = man12&lt;br&gt;board = board&lt;br&gt;adjacenzy&amp;nbsp; = vortexB4,&lt;/p&gt;&lt;p style=&quot;margin: 0px ; margin-left: 8px&quot;&gt;vortexD2 &lt;br&gt;&lt;/p&gt;" style="verticalAlign=top;align=left;overflow=fill;fontSize=12;fontFamily=Helvetica;html=1;" vertex="1" parent="1">
          <mxGeometry x="1310" y="2510" width="160" height="90" as="geometry" />
        </mxCell>
        <mxCell id="G3aUP-0yOjeHawGO9L9T-47" value="&lt;p style=&quot;margin: 0px ; margin-top: 4px ; text-align: center ; text-decoration: underline&quot;&gt;&lt;b&gt;vortexB4:Vortex&lt;/b&gt;&lt;/p&gt;&lt;hr&gt;&lt;p style=&quot;margin: 0px ; margin-left: 8px&quot;&gt;man = null&lt;br&gt;board = board&lt;br&gt;adjacenzy = a4, c4, b6&lt;br&gt;&lt;/p&gt;" style="verticalAlign=top;align=left;overflow=fill;fontSize=12;fontFamily=Helvetica;html=1;" vertex="1" parent="1">
          <mxGeometry x="360" y="2730" width="160" height="90" as="geometry" />
        </mxCell>
        <mxCell id="G3aUP-0yOjeHawGO9L9T-48" value="&lt;p style=&quot;margin: 0px ; margin-top: 4px ; text-align: center ; text-decoration: underline&quot;&gt;&lt;b&gt;vortexB6:Vortex&lt;/b&gt;&lt;/p&gt;&lt;hr&gt;&lt;p style=&quot;margin: 0px ; margin-left: 8px&quot;&gt;man = man13&lt;br&gt;board = board&lt;br&gt;adjacenzy&amp;nbsp; = vortexB4,&lt;/p&gt;&lt;p style=&quot;margin: 0px ; margin-left: 8px&quot;&gt;vortexD6&lt;br&gt;&lt;/p&gt;" style="verticalAlign=top;align=left;overflow=fill;fontSize=12;fontFamily=Helvetica;html=1;" vertex="1" parent="1">
          <mxGeometry x="660" y="2740" width="160" height="90" as="geometry" />
        </mxCell>
        <mxCell id="G3aUP-0yOjeHawGO9L9T-49" value="&lt;p style=&quot;margin: 0px ; margin-top: 4px ; text-align: center ; text-decoration: underline&quot;&gt;&lt;b&gt;vortexC4:Vortex&lt;/b&gt;&lt;/p&gt;&lt;hr&gt;&lt;p style=&quot;margin: 0px ; margin-left: 8px&quot;&gt;man = null&lt;br&gt;board = board&lt;br&gt;adjacenzy = b4, c3, c5&lt;br&gt;&lt;/p&gt;" style="verticalAlign=top;align=left;overflow=fill;fontSize=12;fontFamily=Helvetica;html=1;" vertex="1" parent="1">
          <mxGeometry x="1310" y="2740" width="160" height="90" as="geometry" />
        </mxCell>
        <mxCell id="G3aUP-0yOjeHawGO9L9T-50" value="&lt;p style=&quot;margin: 0px ; margin-top: 4px ; text-align: center ; text-decoration: underline&quot;&gt;&lt;b&gt;vortexC3:Vortex&lt;/b&gt;&lt;/p&gt;&lt;hr&gt;&lt;p style=&quot;margin: 0px ; margin-left: 8px&quot;&gt;man = null&lt;br&gt;board = board&lt;br&gt;adjacenzy = c4,d3&lt;br&gt;&lt;/p&gt;" style="verticalAlign=top;align=left;overflow=fill;fontSize=12;fontFamily=Helvetica;html=1;" vertex="1" parent="1">
          <mxGeometry x="1000" y="2740" width="160" height="90" as="geometry" />
        </mxCell>
        <mxCell id="G3aUP-0yOjeHawGO9L9T-51" value="&lt;p style=&quot;margin: 0px ; margin-top: 4px ; text-align: center ; text-decoration: underline&quot;&gt;&lt;b&gt;vortexC5:Vortex&lt;/b&gt;&lt;/p&gt;&lt;hr&gt;&lt;p style=&quot;margin: 0px ; margin-left: 8px&quot;&gt;man = null&lt;br&gt;board = board&lt;br&gt;adjacenzy = vortexC4, &lt;br&gt;&lt;/p&gt;&lt;p style=&quot;margin: 0px ; margin-left: 8px&quot;&gt;vortexD5&lt;br&gt;&lt;/p&gt;" style="verticalAlign=top;align=left;overflow=fill;fontSize=12;fontFamily=Helvetica;html=1;" vertex="1" parent="1">
          <mxGeometry x="360" y="2980" width="160" height="90" as="geometry" />
        </mxCell>
        <mxCell id="G3aUP-0yOjeHawGO9L9T-52" value="&lt;p style=&quot;margin: 0px ; margin-top: 4px ; text-align: center ; text-decoration: underline&quot;&gt;&lt;b&gt;vortexD1:Vortex&lt;/b&gt;&lt;/p&gt;&lt;hr&gt;&lt;p style=&quot;margin: 0px ; margin-left: 8px&quot;&gt;man = null&lt;br&gt;board = board&lt;/p&gt;&lt;p style=&quot;margin: 0px ; margin-left: 8px&quot;&gt;adjacenzy = vortexD2,&lt;/p&gt;&lt;p style=&quot;margin: 0px ; margin-left: 8px&quot;&gt;vortexG1, vortexA1&lt;br&gt;&lt;br&gt;&lt;/p&gt;" style="verticalAlign=top;align=left;overflow=fill;fontSize=12;fontFamily=Helvetica;html=1;" vertex="1" parent="1">
          <mxGeometry x="670" y="2980" width="160" height="90" as="geometry" />
        </mxCell>
        <mxCell id="G3aUP-0yOjeHawGO9L9T-53" value="&lt;p style=&quot;margin: 0px ; margin-top: 4px ; text-align: center ; text-decoration: underline&quot;&gt;&lt;b&gt;vortexD2:Vortex&lt;/b&gt;&lt;/p&gt;&lt;hr&gt;&lt;p style=&quot;margin: 0px ; margin-left: 8px&quot;&gt;man = man00&lt;br&gt;board = board&lt;br&gt;adjacenzy = vortexB2,&lt;/p&gt;&lt;p style=&quot;margin: 0px ; margin-left: 8px&quot;&gt;vortexF2, vortexD3, vortexD1&lt;br&gt;&lt;/p&gt;," style="verticalAlign=top;align=left;overflow=fill;fontSize=12;fontFamily=Helvetica;html=1;" vertex="1" parent="1">
          <mxGeometry x="990" y="2979" width="160" height="90" as="geometry" />
        </mxCell>
        <mxCell id="G3aUP-0yOjeHawGO9L9T-54" value="&lt;p style=&quot;margin: 0px ; margin-top: 4px ; text-align: center ; text-decoration: underline&quot;&gt;&lt;b&gt;vortexD3:Vortex&lt;/b&gt;&lt;/p&gt;&lt;hr&gt;&lt;p style=&quot;margin: 0px ; margin-left: 8px&quot;&gt;man = null&lt;br&gt;board = board&lt;br&gt;adjacenzy = vortexD2, &lt;br&gt;&lt;/p&gt;&lt;p style=&quot;margin: 0px ; margin-left: 8px&quot;&gt;vortexC3, vortexE3&lt;br&gt;&lt;/p&gt;" style="verticalAlign=top;align=left;overflow=fill;fontSize=12;fontFamily=Helvetica;html=1;" vertex="1" parent="1">
          <mxGeometry x="1300" y="2980" width="160" height="90" as="geometry" />
        </mxCell>
        <mxCell id="G3aUP-0yOjeHawGO9L9T-55" value="" style="endArrow=none;html=1;edgeStyle=orthogonalEdgeStyle;exitX=0.441;exitY=-0.042;exitDx=0;exitDy=0;exitPerimeter=0;" edge="1" parent="1" source="G3aUP-0yOjeHawGO9L9T-43">
          <mxGeometry relative="1" as="geometry">
            <mxPoint x="439.5" y="2440" as="sourcePoint" />
            <mxPoint x="1470.5" y="2190" as="targetPoint" />
            <Array as="points">
              <mxPoint x="439" y="2190" />
            </Array>
          </mxGeometry>
        </mxCell>
        <mxCell id="G3aUP-0yOjeHawGO9L9T-56" value="&lt;div&gt;vortexes&lt;/div&gt;" style="edgeLabel;resizable=0;html=1;align=left;verticalAlign=bottom;" connectable="0" vertex="1" parent="G3aUP-0yOjeHawGO9L9T-55">
          <mxGeometry x="-1" relative="1" as="geometry" />
        </mxCell>
        <mxCell id="G3aUP-0yOjeHawGO9L9T-57" value="&lt;div&gt;board&lt;/div&gt;" style="edgeLabel;resizable=0;html=1;align=right;verticalAlign=bottom;" connectable="0" vertex="1" parent="G3aUP-0yOjeHawGO9L9T-55">
          <mxGeometry x="1" relative="1" as="geometry">
            <mxPoint x="-11" as="offset" />
          </mxGeometry>
        </mxCell>
        <mxCell id="G3aUP-0yOjeHawGO9L9T-58" value="" style="endArrow=none;html=1;edgeStyle=orthogonalEdgeStyle;exitX=0.5;exitY=0;exitDx=0;exitDy=0;" edge="1" parent="1" source="G3aUP-0yOjeHawGO9L9T-44">
          <mxGeometry relative="1" as="geometry">
            <mxPoint x="759.5588235294126" y="2440" as="sourcePoint" />
            <mxPoint x="1469.5" y="2210" as="targetPoint" />
            <Array as="points">
              <mxPoint x="760" y="2210" />
            </Array>
          </mxGeometry>
        </mxCell>
        <mxCell id="G3aUP-0yOjeHawGO9L9T-59" value="&lt;div&gt;vortexes&lt;/div&gt;" style="edgeLabel;resizable=0;html=1;align=left;verticalAlign=bottom;" connectable="0" vertex="1" parent="G3aUP-0yOjeHawGO9L9T-58">
          <mxGeometry x="-1" relative="1" as="geometry" />
        </mxCell>
        <mxCell id="G3aUP-0yOjeHawGO9L9T-60" value="&lt;div&gt;board&lt;/div&gt;" style="edgeLabel;resizable=0;html=1;align=right;verticalAlign=bottom;" connectable="0" vertex="1" parent="G3aUP-0yOjeHawGO9L9T-58">
          <mxGeometry x="1" relative="1" as="geometry">
            <mxPoint x="-10" as="offset" />
          </mxGeometry>
        </mxCell>
        <mxCell id="G3aUP-0yOjeHawGO9L9T-61" value="" style="endArrow=none;html=1;edgeStyle=orthogonalEdgeStyle;entryX=-0.001;entryY=0.43;entryDx=0;entryDy=0;entryPerimeter=0;exitX=0.5;exitY=0;exitDx=0;exitDy=0;" edge="1" parent="1" source="G3aUP-0yOjeHawGO9L9T-45">
          <mxGeometry relative="1" as="geometry">
            <mxPoint x="1080" y="2480" as="sourcePoint" />
            <mxPoint x="1469.130000000001" y="2231.37" as="targetPoint" />
            <Array as="points">
              <mxPoint x="1080" y="2230" />
              <mxPoint x="1469" y="2230" />
            </Array>
          </mxGeometry>
        </mxCell>
        <mxCell id="G3aUP-0yOjeHawGO9L9T-62" value="&lt;div&gt;vortexes&lt;/div&gt;" style="edgeLabel;resizable=0;html=1;align=left;verticalAlign=bottom;" connectable="0" vertex="1" parent="G3aUP-0yOjeHawGO9L9T-61">
          <mxGeometry x="-1" relative="1" as="geometry" />
        </mxCell>
        <mxCell id="G3aUP-0yOjeHawGO9L9T-63" value="&lt;div&gt;board&lt;/div&gt;" style="edgeLabel;resizable=0;html=1;align=right;verticalAlign=bottom;" connectable="0" vertex="1" parent="G3aUP-0yOjeHawGO9L9T-61">
          <mxGeometry x="1" relative="1" as="geometry">
            <mxPoint x="-10" as="offset" />
          </mxGeometry>
        </mxCell>
        <mxCell id="G3aUP-0yOjeHawGO9L9T-64" value="" style="endArrow=none;html=1;edgeStyle=orthogonalEdgeStyle;entryX=0;entryY=0.5;entryDx=0;entryDy=0;exitX=0.5;exitY=0;exitDx=0;exitDy=0;" edge="1" parent="1" source="G3aUP-0yOjeHawGO9L9T-46">
          <mxGeometry relative="1" as="geometry">
            <mxPoint x="1389.5588235294126" y="2450" as="sourcePoint" />
            <mxPoint x="1469.5" y="2249.5" as="targetPoint" />
            <Array as="points">
              <mxPoint x="1390" y="2249" />
            </Array>
          </mxGeometry>
        </mxCell>
        <mxCell id="G3aUP-0yOjeHawGO9L9T-65" value="&lt;div&gt;vortexes&lt;/div&gt;" style="edgeLabel;resizable=0;html=1;align=left;verticalAlign=bottom;" connectable="0" vertex="1" parent="G3aUP-0yOjeHawGO9L9T-64">
          <mxGeometry x="-1" relative="1" as="geometry" />
        </mxCell>
        <mxCell id="G3aUP-0yOjeHawGO9L9T-66" value="&lt;div&gt;board&lt;/div&gt;" style="edgeLabel;resizable=0;html=1;align=right;verticalAlign=bottom;" connectable="0" vertex="1" parent="G3aUP-0yOjeHawGO9L9T-64">
          <mxGeometry x="1" relative="1" as="geometry">
            <mxPoint x="-10" as="offset" />
          </mxGeometry>
        </mxCell>
        <mxCell id="G3aUP-0yOjeHawGO9L9T-67" value="" style="endArrow=none;html=1;edgeStyle=orthogonalEdgeStyle;exitX=0.5;exitY=0;exitDx=0;exitDy=0;entryX=0.004;entryY=0.05;entryDx=0;entryDy=0;entryPerimeter=0;" edge="1" parent="1" source="G3aUP-0yOjeHawGO9L9T-47">
          <mxGeometry relative="1" as="geometry">
            <mxPoint x="418.96000000000004" y="2541" as="sourcePoint" />
            <mxPoint x="1470" y="2291" as="targetPoint" />
            <Array as="points">
              <mxPoint x="440" y="2680" />
              <mxPoint x="550" y="2680" />
              <mxPoint x="550" y="2291" />
            </Array>
          </mxGeometry>
        </mxCell>
        <mxCell id="G3aUP-0yOjeHawGO9L9T-68" value="&lt;div&gt;vortexes&lt;/div&gt;" style="edgeLabel;resizable=0;html=1;align=left;verticalAlign=bottom;" connectable="0" vertex="1" parent="G3aUP-0yOjeHawGO9L9T-67">
          <mxGeometry x="-1" relative="1" as="geometry" />
        </mxCell>
        <mxCell id="G3aUP-0yOjeHawGO9L9T-69" value="&lt;div&gt;board&lt;/div&gt;" style="edgeLabel;resizable=0;html=1;align=right;verticalAlign=bottom;" connectable="0" vertex="1" parent="G3aUP-0yOjeHawGO9L9T-67">
          <mxGeometry x="1" relative="1" as="geometry">
            <mxPoint x="-11" as="offset" />
          </mxGeometry>
        </mxCell>
        <mxCell id="G3aUP-0yOjeHawGO9L9T-70" value="" style="endArrow=none;html=1;edgeStyle=orthogonalEdgeStyle;exitX=0.5;exitY=0;exitDx=0;exitDy=0;" edge="1" parent="1" source="G3aUP-0yOjeHawGO9L9T-48">
          <mxGeometry relative="1" as="geometry">
            <mxPoint x="739.0188235294127" y="2541" as="sourcePoint" />
            <mxPoint x="1469.9599999999991" y="2311" as="targetPoint" />
            <Array as="points">
              <mxPoint x="740" y="2690" />
              <mxPoint x="860" y="2690" />
              <mxPoint x="860" y="2311" />
            </Array>
          </mxGeometry>
        </mxCell>
        <mxCell id="G3aUP-0yOjeHawGO9L9T-71" value="&lt;div&gt;vortexes&lt;/div&gt;" style="edgeLabel;resizable=0;html=1;align=left;verticalAlign=bottom;" connectable="0" vertex="1" parent="G3aUP-0yOjeHawGO9L9T-70">
          <mxGeometry x="-1" relative="1" as="geometry" />
        </mxCell>
        <mxCell id="G3aUP-0yOjeHawGO9L9T-72" value="&lt;div&gt;board&lt;/div&gt;" style="edgeLabel;resizable=0;html=1;align=right;verticalAlign=bottom;" connectable="0" vertex="1" parent="G3aUP-0yOjeHawGO9L9T-70">
          <mxGeometry x="1" relative="1" as="geometry">
            <mxPoint x="-11" as="offset" />
          </mxGeometry>
        </mxCell>
        <mxCell id="G3aUP-0yOjeHawGO9L9T-73" value="" style="endArrow=none;html=1;edgeStyle=orthogonalEdgeStyle;" edge="1" parent="1" source="G3aUP-0yOjeHawGO9L9T-50">
          <mxGeometry relative="1" as="geometry">
            <mxPoint x="1059" y="2730" as="sourcePoint" />
            <mxPoint x="1468.9599999999991" y="2331" as="targetPoint" />
            <Array as="points">
              <mxPoint x="1080" y="2690" />
              <mxPoint x="1170" y="2690" />
              <mxPoint x="1170" y="2331" />
            </Array>
          </mxGeometry>
        </mxCell>
        <mxCell id="G3aUP-0yOjeHawGO9L9T-74" value="&lt;div&gt;vortexes&lt;/div&gt;" style="edgeLabel;resizable=0;html=1;align=left;verticalAlign=bottom;" connectable="0" vertex="1" parent="G3aUP-0yOjeHawGO9L9T-73">
          <mxGeometry x="-1" relative="1" as="geometry" />
        </mxCell>
        <mxCell id="G3aUP-0yOjeHawGO9L9T-75" value="&lt;div&gt;board&lt;/div&gt;" style="edgeLabel;resizable=0;html=1;align=right;verticalAlign=bottom;" connectable="0" vertex="1" parent="G3aUP-0yOjeHawGO9L9T-73">
          <mxGeometry x="1" relative="1" as="geometry">
            <mxPoint x="-10" as="offset" />
          </mxGeometry>
        </mxCell>
        <mxCell id="G3aUP-0yOjeHawGO9L9T-76" value="" style="endArrow=none;html=1;edgeStyle=orthogonalEdgeStyle;exitX=0.382;exitY=0.01;exitDx=0;exitDy=0;exitPerimeter=0;" edge="1" parent="1" source="G3aUP-0yOjeHawGO9L9T-49">
          <mxGeometry relative="1" as="geometry">
            <mxPoint x="1369.0188235294127" y="2551" as="sourcePoint" />
            <mxPoint x="1468.9000000000015" y="2351" as="targetPoint" />
            <Array as="points">
              <mxPoint x="1371" y="2690" />
              <mxPoint x="1300" y="2690" />
              <mxPoint x="1300" y="2351" />
            </Array>
          </mxGeometry>
        </mxCell>
        <mxCell id="G3aUP-0yOjeHawGO9L9T-77" value="&lt;div&gt;vortexes&lt;/div&gt;" style="edgeLabel;resizable=0;html=1;align=left;verticalAlign=bottom;" connectable="0" vertex="1" parent="G3aUP-0yOjeHawGO9L9T-76">
          <mxGeometry x="-1" relative="1" as="geometry" />
        </mxCell>
        <mxCell id="G3aUP-0yOjeHawGO9L9T-78" value="&lt;div&gt;board&lt;/div&gt;" style="edgeLabel;resizable=0;html=1;align=right;verticalAlign=bottom;" connectable="0" vertex="1" parent="G3aUP-0yOjeHawGO9L9T-76">
          <mxGeometry x="1" relative="1" as="geometry">
            <mxPoint x="-10" as="offset" />
          </mxGeometry>
        </mxCell>
        <mxCell id="G3aUP-0yOjeHawGO9L9T-79" value="" style="endArrow=none;html=1;edgeStyle=orthogonalEdgeStyle;exitX=0.5;exitY=0;exitDx=0;exitDy=0;entryX=0.004;entryY=0.05;entryDx=0;entryDy=0;entryPerimeter=0;" edge="1" parent="1" source="G3aUP-0yOjeHawGO9L9T-51">
          <mxGeometry relative="1" as="geometry">
            <mxPoint x="440" y="2819.1" as="sourcePoint" />
            <mxPoint x="1470" y="2380.1000000000004" as="targetPoint" />
            <Array as="points">
              <mxPoint x="440" y="2910" />
              <mxPoint x="610" y="2910" />
              <mxPoint x="610" y="2380" />
            </Array>
          </mxGeometry>
        </mxCell>
        <mxCell id="G3aUP-0yOjeHawGO9L9T-80" value="&lt;div&gt;vortexes&lt;/div&gt;" style="edgeLabel;resizable=0;html=1;align=left;verticalAlign=bottom;" connectable="0" vertex="1" parent="G3aUP-0yOjeHawGO9L9T-79">
          <mxGeometry x="-1" relative="1" as="geometry" />
        </mxCell>
        <mxCell id="G3aUP-0yOjeHawGO9L9T-81" value="&lt;div&gt;board&lt;/div&gt;" style="edgeLabel;resizable=0;html=1;align=right;verticalAlign=bottom;" connectable="0" vertex="1" parent="G3aUP-0yOjeHawGO9L9T-79">
          <mxGeometry x="1" relative="1" as="geometry">
            <mxPoint x="-11" as="offset" />
          </mxGeometry>
        </mxCell>
        <mxCell id="G3aUP-0yOjeHawGO9L9T-82" value="" style="endArrow=none;html=1;edgeStyle=orthogonalEdgeStyle;exitX=0.419;exitY=-0.029;exitDx=0;exitDy=0;exitPerimeter=0;" edge="1" parent="1" source="G3aUP-0yOjeHawGO9L9T-52">
          <mxGeometry relative="1" as="geometry">
            <mxPoint x="740" y="2970" as="sourcePoint" />
            <mxPoint x="1469.9599999999991" y="2400.1000000000004" as="targetPoint" />
            <Array as="points">
              <mxPoint x="737" y="2910" />
              <mxPoint x="870" y="2910" />
              <mxPoint x="870" y="2810" />
              <mxPoint x="940" y="2810" />
              <mxPoint x="940" y="2400" />
            </Array>
          </mxGeometry>
        </mxCell>
        <mxCell id="G3aUP-0yOjeHawGO9L9T-83" value="&lt;div&gt;vortexes&lt;/div&gt;" style="edgeLabel;resizable=0;html=1;align=left;verticalAlign=bottom;" connectable="0" vertex="1" parent="G3aUP-0yOjeHawGO9L9T-82">
          <mxGeometry x="-1" relative="1" as="geometry" />
        </mxCell>
        <mxCell id="G3aUP-0yOjeHawGO9L9T-84" value="&lt;div&gt;board&lt;/div&gt;" style="edgeLabel;resizable=0;html=1;align=right;verticalAlign=bottom;" connectable="0" vertex="1" parent="G3aUP-0yOjeHawGO9L9T-82">
          <mxGeometry x="1" relative="1" as="geometry">
            <mxPoint x="-11" as="offset" />
          </mxGeometry>
        </mxCell>
        <mxCell id="G3aUP-0yOjeHawGO9L9T-85" value="" style="endArrow=none;html=1;edgeStyle=orthogonalEdgeStyle;" edge="1" parent="1">
          <mxGeometry relative="1" as="geometry">
            <mxPoint x="1080" y="2980" as="sourcePoint" />
            <mxPoint x="1468.9599999999991" y="2420.1000000000004" as="targetPoint" />
            <Array as="points">
              <mxPoint x="1080" y="2980" />
              <mxPoint x="1080" y="2920" />
              <mxPoint x="1220" y="2920" />
              <mxPoint x="1220" y="2420" />
            </Array>
          </mxGeometry>
        </mxCell>
        <mxCell id="G3aUP-0yOjeHawGO9L9T-86" value="&lt;div&gt;vortexes&lt;/div&gt;" style="edgeLabel;resizable=0;html=1;align=left;verticalAlign=bottom;" connectable="0" vertex="1" parent="G3aUP-0yOjeHawGO9L9T-85">
          <mxGeometry x="-1" relative="1" as="geometry">
            <mxPoint as="offset" />
          </mxGeometry>
        </mxCell>
        <mxCell id="G3aUP-0yOjeHawGO9L9T-87" value="&lt;div&gt;board&lt;/div&gt;" style="edgeLabel;resizable=0;html=1;align=right;verticalAlign=bottom;" connectable="0" vertex="1" parent="G3aUP-0yOjeHawGO9L9T-85">
          <mxGeometry x="1" relative="1" as="geometry">
            <mxPoint x="-10" as="offset" />
          </mxGeometry>
        </mxCell>
        <mxCell id="G3aUP-0yOjeHawGO9L9T-88" value="" style="endArrow=none;html=1;edgeStyle=orthogonalEdgeStyle;" edge="1" parent="1">
          <mxGeometry relative="1" as="geometry">
            <mxPoint x="1371" y="2980" as="sourcePoint" />
            <mxPoint x="1468.9000000000015" y="2440.1000000000004" as="targetPoint" />
            <Array as="points">
              <mxPoint x="1371" y="2930" />
              <mxPoint x="1270" y="2930" />
              <mxPoint x="1270" y="2440" />
            </Array>
          </mxGeometry>
        </mxCell>
        <mxCell id="G3aUP-0yOjeHawGO9L9T-89" value="&lt;div&gt;vortexes&lt;/div&gt;" style="edgeLabel;resizable=0;html=1;align=left;verticalAlign=bottom;" connectable="0" vertex="1" parent="G3aUP-0yOjeHawGO9L9T-88">
          <mxGeometry x="-1" relative="1" as="geometry" />
        </mxCell>
        <mxCell id="G3aUP-0yOjeHawGO9L9T-90" value="&lt;div&gt;board&lt;/div&gt;" style="edgeLabel;resizable=0;html=1;align=right;verticalAlign=bottom;" connectable="0" vertex="1" parent="G3aUP-0yOjeHawGO9L9T-88">
          <mxGeometry x="1" relative="1" as="geometry">
            <mxPoint x="-10" as="offset" />
          </mxGeometry>
        </mxCell>
        <mxCell id="G3aUP-0yOjeHawGO9L9T-91" value="&lt;p style=&quot;margin: 0px ; margin-top: 4px ; text-align: center ; text-decoration: underline&quot;&gt;&lt;b&gt;vortexD5:Vortex&lt;/b&gt;&lt;/p&gt;&lt;hr&gt;&lt;p style=&quot;margin: 0px ; margin-left: 8px&quot;&gt;man = null&lt;br&gt;board = board&lt;br&gt;adjacenzy = vortexD6&lt;/p&gt;&lt;p style=&quot;margin: 0px ; margin-left: 8px&quot;&gt;vortexC5, vortexE5&lt;br&gt;&lt;/p&gt;" style="verticalAlign=top;align=left;overflow=fill;fontSize=12;fontFamily=Helvetica;html=1;" vertex="1" parent="1">
          <mxGeometry x="1910" y="2490" width="160" height="90" as="geometry" />
        </mxCell>
        <mxCell id="G3aUP-0yOjeHawGO9L9T-92" style="edgeStyle=orthogonalEdgeStyle;rounded=0;orthogonalLoop=1;jettySize=auto;html=1;" edge="1" parent="1" source="G3aUP-0yOjeHawGO9L9T-93">
          <mxGeometry relative="1" as="geometry">
            <mxPoint x="2300" y="2480" as="targetPoint" />
          </mxGeometry>
        </mxCell>
        <mxCell id="G3aUP-0yOjeHawGO9L9T-93" value="&lt;p style=&quot;margin: 0px ; margin-top: 4px ; text-align: center ; text-decoration: underline&quot;&gt;&lt;b&gt;vortexD6:Vortex&lt;/b&gt;&lt;/p&gt;&lt;hr&gt;&lt;p style=&quot;margin: 0px ; margin-left: 8px&quot;&gt;man = null&lt;br&gt;board = board&lt;/p&gt;&lt;p style=&quot;margin: 0px ; margin-left: 8px&quot;&gt;adjacenzy = vortexB6, &lt;br&gt;&lt;/p&gt;&lt;p style=&quot;margin: 0px ; margin-left: 8px&quot;&gt;vortexD5, vortexF6, vortexD7&lt;br&gt;&lt;br&gt;&lt;/p&gt;" style="verticalAlign=top;align=left;overflow=fill;fontSize=12;fontFamily=Helvetica;html=1;" vertex="1" parent="1">
          <mxGeometry x="2220" y="2480" width="160" height="100" as="geometry" />
        </mxCell>
        <mxCell id="G3aUP-0yOjeHawGO9L9T-94" value="&lt;p style=&quot;margin: 0px ; margin-top: 4px ; text-align: center ; text-decoration: underline&quot;&gt;&lt;b&gt;vortexD7:Vortex&lt;/b&gt;&lt;/p&gt;&lt;hr&gt;&lt;p style=&quot;margin: 0px ; margin-left: 8px&quot;&gt;man = null&lt;br&gt;board = board&lt;br&gt;adjacenzy = vortexA7, &lt;br&gt;&lt;/p&gt;&lt;p style=&quot;margin: 0px ; margin-left: 8px&quot;&gt;vortexG7,vortexD6&lt;br&gt;&lt;/p&gt;" style="verticalAlign=top;align=left;overflow=fill;fontSize=12;fontFamily=Helvetica;html=1;" vertex="1" parent="1">
          <mxGeometry x="2540" y="2490" width="160" height="90" as="geometry" />
        </mxCell>
        <mxCell id="G3aUP-0yOjeHawGO9L9T-95" value="&lt;p style=&quot;margin: 0px ; margin-top: 4px ; text-align: center ; text-decoration: underline&quot;&gt;&lt;b&gt;vortexE3:Vortex&lt;/b&gt;&lt;/p&gt;&lt;hr&gt;&lt;p style=&quot;margin: 0px ; margin-left: 8px&quot;&gt;man = man01&lt;br&gt;board = board&lt;/p&gt;&lt;p style=&quot;margin: 0px ; margin-left: 8px&quot;&gt;adjacenzy = vortexD3, &lt;br&gt;&lt;/p&gt;&lt;p style=&quot;margin: 0px ; margin-left: 8px&quot;&gt;vortexE4&lt;br&gt;&lt;/p&gt;" style="verticalAlign=top;align=left;overflow=fill;fontSize=12;fontFamily=Helvetica;html=1;" vertex="1" parent="1">
          <mxGeometry x="2850" y="2500" width="160" height="90" as="geometry" />
        </mxCell>
        <mxCell id="G3aUP-0yOjeHawGO9L9T-96" value="&lt;p style=&quot;margin: 0px ; margin-top: 4px ; text-align: center ; text-decoration: underline&quot;&gt;&lt;b&gt;vortexE4:Vortex&lt;/b&gt;&lt;/p&gt;&lt;hr&gt;&lt;p style=&quot;margin: 0px ; margin-left: 8px&quot;&gt;man = man11&lt;br&gt;board = board&lt;br&gt;adjacenzy = vortexF4, &lt;br&gt;&lt;/p&gt;&lt;p style=&quot;margin: 0px ; margin-left: 8px&quot;&gt;vortexE5, vortexE3 &lt;br&gt;&lt;/p&gt;&lt;p style=&quot;margin: 0px ; margin-left: 8px&quot;&gt;&lt;br&gt;&lt;/p&gt;" style="verticalAlign=top;align=left;overflow=fill;fontSize=12;fontFamily=Helvetica;html=1;" vertex="1" parent="1">
          <mxGeometry x="1900" y="2720" width="160" height="90" as="geometry" />
        </mxCell>
        <mxCell id="G3aUP-0yOjeHawGO9L9T-97" value="&lt;p style=&quot;margin: 0px ; margin-top: 4px ; text-align: center ; text-decoration: underline&quot;&gt;&lt;b&gt;vortexE5:Vortex&lt;/b&gt;&lt;/p&gt;&lt;hr&gt;&lt;p style=&quot;margin: 0px ; margin-left: 8px&quot;&gt;man = null&lt;br&gt;board = board&lt;br&gt;adjacenzy = vortexD5, &lt;br&gt;&lt;/p&gt;&lt;p style=&quot;margin: 0px ; margin-left: 8px&quot;&gt;vortexE4&lt;br&gt;&lt;/p&gt;" style="verticalAlign=top;align=left;overflow=fill;fontSize=12;fontFamily=Helvetica;html=1;" vertex="1" parent="1">
          <mxGeometry x="2200" y="2730" width="160" height="90" as="geometry" />
        </mxCell>
        <mxCell id="G3aUP-0yOjeHawGO9L9T-98" value="&lt;p style=&quot;margin: 0px ; margin-top: 4px ; text-align: center ; text-decoration: underline&quot;&gt;&lt;b&gt;vortexF4:Vortex&lt;/b&gt;&lt;/p&gt;&lt;hr&gt;&lt;p style=&quot;margin: 0px ; margin-left: 8px&quot;&gt;man = man12&lt;br&gt;board = board&lt;/p&gt;&lt;p style=&quot;margin: 0px ; margin-left: 8px&quot;&gt;adjacenzy = vortexE4, &lt;br&gt;&lt;/p&gt;&lt;p style=&quot;margin: 0px ; margin-left: 8px&quot;&gt;vortexG4, vortexF6, FvortexF2&lt;/p&gt;&lt;p style=&quot;margin: 0px ; margin-left: 8px&quot;&gt;&lt;br&gt;&lt;/p&gt;" style="verticalAlign=top;align=left;overflow=fill;fontSize=12;fontFamily=Helvetica;html=1;" vertex="1" parent="1">
          <mxGeometry x="2850" y="2730" width="170" height="90" as="geometry" />
        </mxCell>
        <mxCell id="G3aUP-0yOjeHawGO9L9T-99" value="&lt;p style=&quot;margin: 0px ; margin-top: 4px ; text-align: center ; text-decoration: underline&quot;&gt;&lt;b&gt;vortexF2:Vortex&lt;/b&gt;&lt;/p&gt;&lt;hr&gt;&lt;p style=&quot;margin: 0px ; margin-left: 8px&quot;&gt;man = null&lt;br&gt;board = board&lt;/p&gt;&lt;p style=&quot;margin: 0px ; margin-left: 8px&quot;&gt;adjacenzy = vortexD2, &lt;br&gt;&lt;/p&gt;&lt;p style=&quot;margin: 0px ; margin-left: 8px&quot;&gt;vortexF4&lt;br&gt;&lt;/p&gt;" style="verticalAlign=top;align=left;overflow=fill;fontSize=12;fontFamily=Helvetica;html=1;" vertex="1" parent="1">
          <mxGeometry x="2540" y="2730" width="160" height="90" as="geometry" />
        </mxCell>
        <mxCell id="G3aUP-0yOjeHawGO9L9T-100" value="&lt;p style=&quot;margin: 0px ; margin-top: 4px ; text-align: center ; text-decoration: underline&quot;&gt;&lt;b&gt;vortexF6:Vortex&lt;/b&gt;&lt;/p&gt;&lt;hr&gt;&lt;p style=&quot;margin: 0px ; margin-left: 8px&quot;&gt;man = null&lt;br&gt;board = board&lt;br&gt;adjacenzy = vortexD6,&lt;/p&gt;&lt;p style=&quot;margin: 0px ; margin-left: 8px&quot;&gt;vortexF4&lt;br&gt;&lt;/p&gt;" style="verticalAlign=top;align=left;overflow=fill;fontSize=12;fontFamily=Helvetica;html=1;" vertex="1" parent="1">
          <mxGeometry x="1900" y="2970" width="160" height="90" as="geometry" />
        </mxCell>
        <mxCell id="G3aUP-0yOjeHawGO9L9T-101" value="&lt;p style=&quot;margin: 0px ; margin-top: 4px ; text-align: center ; text-decoration: underline&quot;&gt;&lt;b&gt;vortexG1:Vortex&lt;/b&gt;&lt;/p&gt;&lt;hr&gt;&lt;p style=&quot;margin: 0px ; margin-left: 8px&quot;&gt;man = null&lt;br&gt;board = board&lt;br&gt;adjacenzy = vortexD1, &lt;br&gt;&lt;/p&gt;&lt;p style=&quot;margin: 0px ; margin-left: 8px&quot;&gt;VortexG4&lt;br&gt;&lt;/p&gt;" style="verticalAlign=top;align=left;overflow=fill;fontSize=12;fontFamily=Helvetica;html=1;" vertex="1" parent="1">
          <mxGeometry x="2210" y="2970" width="160" height="90" as="geometry" />
        </mxCell>
        <mxCell id="G3aUP-0yOjeHawGO9L9T-102" value="&lt;p style=&quot;margin: 0px ; margin-top: 4px ; text-align: center ; text-decoration: underline&quot;&gt;&lt;b&gt;vortexG4:Vortex&lt;/b&gt;&lt;/p&gt;&lt;hr&gt;&lt;p style=&quot;margin: 0px ; margin-left: 8px&quot;&gt;man = man02&lt;br&gt;board = board&lt;br&gt;adjacenzy = vortexG1, &lt;br&gt;&lt;/p&gt;&lt;p style=&quot;margin: 0px ; margin-left: 8px&quot;&gt;vortexG7,&amp;nbsp; vortex F4&lt;br&gt;&lt;/p&gt;" style="verticalAlign=top;align=left;overflow=fill;fontSize=12;fontFamily=Helvetica;html=1;" vertex="1" parent="1">
          <mxGeometry x="2530" y="2970" width="160" height="90" as="geometry" />
        </mxCell>
        <mxCell id="G3aUP-0yOjeHawGO9L9T-103" value="&lt;p style=&quot;margin: 0px ; margin-top: 4px ; text-align: center ; text-decoration: underline&quot;&gt;&lt;b&gt;vortexG7:Vortex&lt;/b&gt;&lt;/p&gt;&lt;hr&gt;&lt;p style=&quot;margin: 0px ; margin-left: 8px&quot;&gt;man = null&lt;br&gt;board = board&lt;/p&gt;&lt;p style=&quot;margin: 0px ; margin-left: 8px&quot;&gt;adjacenzy = vortexG4, &lt;br&gt;&lt;/p&gt;&lt;p style=&quot;margin: 0px ; margin-left: 8px&quot;&gt;vortexD7&lt;br&gt;&lt;/p&gt;" style="verticalAlign=top;align=left;overflow=fill;fontSize=12;fontFamily=Helvetica;html=1;" vertex="1" parent="1">
          <mxGeometry x="2840" y="2970" width="160" height="90" as="geometry" />
        </mxCell>
        <mxCell id="G3aUP-0yOjeHawGO9L9T-104" value="" style="endArrow=none;html=1;edgeStyle=orthogonalEdgeStyle;exitX=0.441;exitY=-0.042;exitDx=0;exitDy=0;exitPerimeter=0;" edge="1" parent="1" source="G3aUP-0yOjeHawGO9L9T-91" target="G3aUP-0yOjeHawGO9L9T-42">
          <mxGeometry relative="1" as="geometry">
            <mxPoint x="1979.5" y="2430" as="sourcePoint" />
            <mxPoint x="3010.499999999999" y="2180" as="targetPoint" />
            <Array as="points">
              <mxPoint x="1979" y="2486" />
              <mxPoint x="1979" y="2180" />
            </Array>
          </mxGeometry>
        </mxCell>
        <mxCell id="G3aUP-0yOjeHawGO9L9T-105" value="&lt;div&gt;vortexes&lt;/div&gt;" style="edgeLabel;resizable=0;html=1;align=left;verticalAlign=bottom;" connectable="0" vertex="1" parent="G3aUP-0yOjeHawGO9L9T-104">
          <mxGeometry x="-1" relative="1" as="geometry" />
        </mxCell>
        <mxCell id="G3aUP-0yOjeHawGO9L9T-106" value="&lt;div&gt;board&lt;/div&gt;" style="edgeLabel;resizable=0;html=1;align=right;verticalAlign=bottom;" connectable="0" vertex="1" parent="G3aUP-0yOjeHawGO9L9T-104">
          <mxGeometry x="1" relative="1" as="geometry">
            <mxPoint x="30" as="offset" />
          </mxGeometry>
        </mxCell>
        <mxCell id="G3aUP-0yOjeHawGO9L9T-107" value="" style="endArrow=none;html=1;edgeStyle=orthogonalEdgeStyle;" edge="1" parent="1" target="G3aUP-0yOjeHawGO9L9T-42">
          <mxGeometry relative="1" as="geometry">
            <mxPoint x="2300" y="2470" as="sourcePoint" />
            <mxPoint x="1842" y="2200" as="targetPoint" />
            <Array as="points">
              <mxPoint x="2300" y="2200" />
            </Array>
          </mxGeometry>
        </mxCell>
        <mxCell id="G3aUP-0yOjeHawGO9L9T-108" value="&lt;div&gt;vortexes&lt;/div&gt;" style="edgeLabel;resizable=0;html=1;align=left;verticalAlign=bottom;" connectable="0" vertex="1" parent="G3aUP-0yOjeHawGO9L9T-107">
          <mxGeometry x="-1" relative="1" as="geometry">
            <mxPoint y="10" as="offset" />
          </mxGeometry>
        </mxCell>
        <mxCell id="G3aUP-0yOjeHawGO9L9T-109" value="&lt;div&gt;board&lt;/div&gt;" style="edgeLabel;resizable=0;html=1;align=right;verticalAlign=bottom;" connectable="0" vertex="1" parent="G3aUP-0yOjeHawGO9L9T-107">
          <mxGeometry x="1" relative="1" as="geometry">
            <mxPoint x="30" as="offset" />
          </mxGeometry>
        </mxCell>
        <mxCell id="G3aUP-0yOjeHawGO9L9T-110" value="" style="endArrow=none;html=1;edgeStyle=orthogonalEdgeStyle;exitX=0.5;exitY=0;exitDx=0;exitDy=0;" edge="1" parent="1" source="G3aUP-0yOjeHawGO9L9T-94">
          <mxGeometry relative="1" as="geometry">
            <mxPoint x="2619.5" y="2430" as="sourcePoint" />
            <mxPoint x="1840" y="2220" as="targetPoint" />
            <Array as="points">
              <mxPoint x="2620" y="2220" />
            </Array>
          </mxGeometry>
        </mxCell>
        <mxCell id="G3aUP-0yOjeHawGO9L9T-111" value="&lt;div&gt;vortexes&lt;/div&gt;" style="edgeLabel;resizable=0;html=1;align=left;verticalAlign=bottom;" connectable="0" vertex="1" parent="G3aUP-0yOjeHawGO9L9T-110">
          <mxGeometry x="-1" relative="1" as="geometry" />
        </mxCell>
        <mxCell id="G3aUP-0yOjeHawGO9L9T-112" value="&lt;div&gt;board&lt;/div&gt;" style="edgeLabel;resizable=0;html=1;align=right;verticalAlign=bottom;" connectable="0" vertex="1" parent="G3aUP-0yOjeHawGO9L9T-110">
          <mxGeometry x="1" relative="1" as="geometry">
            <mxPoint x="31" as="offset" />
          </mxGeometry>
        </mxCell>
        <mxCell id="G3aUP-0yOjeHawGO9L9T-113" value="" style="endArrow=none;html=1;edgeStyle=orthogonalEdgeStyle;exitX=0.5;exitY=0;exitDx=0;exitDy=0;" edge="1" parent="1" source="G3aUP-0yOjeHawGO9L9T-95">
          <mxGeometry relative="1" as="geometry">
            <mxPoint x="2929.5588235294126" y="2440" as="sourcePoint" />
            <mxPoint x="1838.999999999999" y="2238" as="targetPoint" />
            <Array as="points">
              <mxPoint x="2930" y="2239" />
              <mxPoint x="1839" y="2239" />
            </Array>
          </mxGeometry>
        </mxCell>
        <mxCell id="G3aUP-0yOjeHawGO9L9T-114" value="&lt;div&gt;vortexes&lt;/div&gt;" style="edgeLabel;resizable=0;html=1;align=left;verticalAlign=bottom;" connectable="0" vertex="1" parent="G3aUP-0yOjeHawGO9L9T-113">
          <mxGeometry x="-1" relative="1" as="geometry" />
        </mxCell>
        <mxCell id="G3aUP-0yOjeHawGO9L9T-115" value="&lt;div&gt;board&lt;/div&gt;" style="edgeLabel;resizable=0;html=1;align=right;verticalAlign=bottom;" connectable="0" vertex="1" parent="G3aUP-0yOjeHawGO9L9T-113">
          <mxGeometry x="1" relative="1" as="geometry">
            <mxPoint x="31" y="2" as="offset" />
          </mxGeometry>
        </mxCell>
        <mxCell id="G3aUP-0yOjeHawGO9L9T-116" value="" style="endArrow=none;html=1;edgeStyle=orthogonalEdgeStyle;exitX=0.5;exitY=0;exitDx=0;exitDy=0;" edge="1" parent="1" source="G3aUP-0yOjeHawGO9L9T-96" target="G3aUP-0yOjeHawGO9L9T-42">
          <mxGeometry relative="1" as="geometry">
            <mxPoint x="1958.96" y="2531" as="sourcePoint" />
            <mxPoint x="3010" y="2281" as="targetPoint" />
            <Array as="points">
              <mxPoint x="1980" y="2670" />
              <mxPoint x="2090" y="2670" />
              <mxPoint x="2090" y="2281" />
            </Array>
          </mxGeometry>
        </mxCell>
        <mxCell id="G3aUP-0yOjeHawGO9L9T-117" value="&lt;div&gt;vortexes&lt;/div&gt;" style="edgeLabel;resizable=0;html=1;align=left;verticalAlign=bottom;" connectable="0" vertex="1" parent="G3aUP-0yOjeHawGO9L9T-116">
          <mxGeometry x="-1" relative="1" as="geometry" />
        </mxCell>
        <mxCell id="G3aUP-0yOjeHawGO9L9T-118" value="&lt;div&gt;board&lt;/div&gt;" style="edgeLabel;resizable=0;html=1;align=right;verticalAlign=bottom;" connectable="0" vertex="1" parent="G3aUP-0yOjeHawGO9L9T-116">
          <mxGeometry x="1" relative="1" as="geometry">
            <mxPoint x="30" as="offset" />
          </mxGeometry>
        </mxCell>
        <mxCell id="G3aUP-0yOjeHawGO9L9T-119" value="" style="endArrow=none;html=1;edgeStyle=orthogonalEdgeStyle;exitX=0.5;exitY=0;exitDx=0;exitDy=0;" edge="1" parent="1" source="G3aUP-0yOjeHawGO9L9T-97" target="G3aUP-0yOjeHawGO9L9T-42">
          <mxGeometry relative="1" as="geometry">
            <mxPoint x="2279.0188235294127" y="2531" as="sourcePoint" />
            <mxPoint x="1842" y="2301" as="targetPoint" />
            <Array as="points">
              <mxPoint x="2280" y="2680" />
              <mxPoint x="2400" y="2680" />
              <mxPoint x="2400" y="2301" />
            </Array>
          </mxGeometry>
        </mxCell>
        <mxCell id="G3aUP-0yOjeHawGO9L9T-120" value="&lt;div&gt;vortexes&lt;/div&gt;" style="edgeLabel;resizable=0;html=1;align=left;verticalAlign=bottom;" connectable="0" vertex="1" parent="G3aUP-0yOjeHawGO9L9T-119">
          <mxGeometry x="-1" relative="1" as="geometry" />
        </mxCell>
        <mxCell id="G3aUP-0yOjeHawGO9L9T-121" value="&lt;div&gt;board&lt;/div&gt;" style="edgeLabel;resizable=0;html=1;align=right;verticalAlign=bottom;" connectable="0" vertex="1" parent="G3aUP-0yOjeHawGO9L9T-119">
          <mxGeometry x="1" relative="1" as="geometry">
            <mxPoint x="30" as="offset" />
          </mxGeometry>
        </mxCell>
        <mxCell id="G3aUP-0yOjeHawGO9L9T-122" value="" style="endArrow=none;html=1;edgeStyle=orthogonalEdgeStyle;" edge="1" parent="1" source="G3aUP-0yOjeHawGO9L9T-99">
          <mxGeometry relative="1" as="geometry">
            <mxPoint x="2599" y="2720" as="sourcePoint" />
            <mxPoint x="1840" y="2321" as="targetPoint" />
            <Array as="points">
              <mxPoint x="2620" y="2680" />
              <mxPoint x="2710" y="2680" />
              <mxPoint x="2710" y="2321" />
              <mxPoint x="1840" y="2321" />
            </Array>
          </mxGeometry>
        </mxCell>
        <mxCell id="G3aUP-0yOjeHawGO9L9T-123" value="&lt;div&gt;vortexes&lt;/div&gt;" style="edgeLabel;resizable=0;html=1;align=left;verticalAlign=bottom;" connectable="0" vertex="1" parent="G3aUP-0yOjeHawGO9L9T-122">
          <mxGeometry x="-1" relative="1" as="geometry" />
        </mxCell>
        <mxCell id="G3aUP-0yOjeHawGO9L9T-124" value="&lt;div&gt;board&lt;/div&gt;" style="edgeLabel;resizable=0;html=1;align=right;verticalAlign=bottom;" connectable="0" vertex="1" parent="G3aUP-0yOjeHawGO9L9T-122">
          <mxGeometry x="1" relative="1" as="geometry">
            <mxPoint x="31" as="offset" />
          </mxGeometry>
        </mxCell>
        <mxCell id="G3aUP-0yOjeHawGO9L9T-125" value="" style="endArrow=none;html=1;edgeStyle=orthogonalEdgeStyle;exitX=0.382;exitY=0.01;exitDx=0;exitDy=0;exitPerimeter=0;" edge="1" parent="1" source="G3aUP-0yOjeHawGO9L9T-98" target="G3aUP-0yOjeHawGO9L9T-42">
          <mxGeometry relative="1" as="geometry">
            <mxPoint x="2909.0188235294127" y="2541" as="sourcePoint" />
            <mxPoint x="3008.9000000000005" y="2341" as="targetPoint" />
            <Array as="points">
              <mxPoint x="2911" y="2680" />
              <mxPoint x="2840" y="2680" />
              <mxPoint x="2840" y="2341" />
            </Array>
          </mxGeometry>
        </mxCell>
        <mxCell id="G3aUP-0yOjeHawGO9L9T-126" value="&lt;div&gt;vortexes&lt;/div&gt;" style="edgeLabel;resizable=0;html=1;align=left;verticalAlign=bottom;" connectable="0" vertex="1" parent="G3aUP-0yOjeHawGO9L9T-125">
          <mxGeometry x="-1" relative="1" as="geometry" />
        </mxCell>
        <mxCell id="G3aUP-0yOjeHawGO9L9T-127" value="&lt;div&gt;board&lt;/div&gt;" style="edgeLabel;resizable=0;html=1;align=right;verticalAlign=bottom;" connectable="0" vertex="1" parent="G3aUP-0yOjeHawGO9L9T-125">
          <mxGeometry x="1" relative="1" as="geometry">
            <mxPoint x="31" as="offset" />
          </mxGeometry>
        </mxCell>
        <mxCell id="G3aUP-0yOjeHawGO9L9T-128" value="" style="endArrow=none;html=1;edgeStyle=orthogonalEdgeStyle;exitX=0.5;exitY=0;exitDx=0;exitDy=0;" edge="1" parent="1" source="G3aUP-0yOjeHawGO9L9T-100" target="G3aUP-0yOjeHawGO9L9T-42">
          <mxGeometry relative="1" as="geometry">
            <mxPoint x="1980" y="2809.1" as="sourcePoint" />
            <mxPoint x="3010" y="2370.1" as="targetPoint" />
            <Array as="points">
              <mxPoint x="1980" y="2900" />
              <mxPoint x="2150" y="2900" />
              <mxPoint x="2150" y="2370" />
            </Array>
          </mxGeometry>
        </mxCell>
        <mxCell id="G3aUP-0yOjeHawGO9L9T-129" value="&lt;div&gt;vortexes&lt;/div&gt;" style="edgeLabel;resizable=0;html=1;align=left;verticalAlign=bottom;" connectable="0" vertex="1" parent="G3aUP-0yOjeHawGO9L9T-128">
          <mxGeometry x="-1" relative="1" as="geometry" />
        </mxCell>
        <mxCell id="G3aUP-0yOjeHawGO9L9T-130" value="&lt;div&gt;board&lt;/div&gt;" style="edgeLabel;resizable=0;html=1;align=right;verticalAlign=bottom;" connectable="0" vertex="1" parent="G3aUP-0yOjeHawGO9L9T-128">
          <mxGeometry x="1" relative="1" as="geometry">
            <mxPoint x="30" as="offset" />
          </mxGeometry>
        </mxCell>
        <mxCell id="G3aUP-0yOjeHawGO9L9T-131" value="" style="endArrow=none;html=1;edgeStyle=orthogonalEdgeStyle;exitX=0.419;exitY=-0.029;exitDx=0;exitDy=0;exitPerimeter=0;" edge="1" parent="1" source="G3aUP-0yOjeHawGO9L9T-101" target="G3aUP-0yOjeHawGO9L9T-42">
          <mxGeometry relative="1" as="geometry">
            <mxPoint x="2280" y="2960" as="sourcePoint" />
            <mxPoint x="3009.96" y="2390.1" as="targetPoint" />
            <Array as="points">
              <mxPoint x="2277" y="2900" />
              <mxPoint x="2410" y="2900" />
              <mxPoint x="2410" y="2769" />
              <mxPoint x="2480" y="2769" />
              <mxPoint x="2480" y="2390" />
            </Array>
          </mxGeometry>
        </mxCell>
        <mxCell id="G3aUP-0yOjeHawGO9L9T-132" value="&lt;div&gt;vortexes&lt;/div&gt;" style="edgeLabel;resizable=0;html=1;align=left;verticalAlign=bottom;" connectable="0" vertex="1" parent="G3aUP-0yOjeHawGO9L9T-131">
          <mxGeometry x="-1" relative="1" as="geometry" />
        </mxCell>
        <mxCell id="G3aUP-0yOjeHawGO9L9T-133" value="&lt;div&gt;board&lt;/div&gt;" style="edgeLabel;resizable=0;html=1;align=right;verticalAlign=bottom;" connectable="0" vertex="1" parent="G3aUP-0yOjeHawGO9L9T-131">
          <mxGeometry x="1" relative="1" as="geometry">
            <mxPoint x="30" as="offset" />
          </mxGeometry>
        </mxCell>
        <mxCell id="G3aUP-0yOjeHawGO9L9T-134" value="" style="endArrow=none;html=1;edgeStyle=orthogonalEdgeStyle;" edge="1" parent="1" target="G3aUP-0yOjeHawGO9L9T-42">
          <mxGeometry relative="1" as="geometry">
            <mxPoint x="2620" y="2970" as="sourcePoint" />
            <mxPoint x="3008.96" y="2410.1" as="targetPoint" />
            <Array as="points">
              <mxPoint x="2620" y="2910" />
              <mxPoint x="2760" y="2910" />
              <mxPoint x="2760" y="2410" />
            </Array>
          </mxGeometry>
        </mxCell>
        <mxCell id="G3aUP-0yOjeHawGO9L9T-135" value="&lt;div&gt;vortexes&lt;/div&gt;" style="edgeLabel;resizable=0;html=1;align=left;verticalAlign=bottom;" connectable="0" vertex="1" parent="G3aUP-0yOjeHawGO9L9T-134">
          <mxGeometry x="-1" relative="1" as="geometry">
            <mxPoint as="offset" />
          </mxGeometry>
        </mxCell>
        <mxCell id="G3aUP-0yOjeHawGO9L9T-136" value="&lt;div&gt;board&lt;/div&gt;" style="edgeLabel;resizable=0;html=1;align=right;verticalAlign=bottom;" connectable="0" vertex="1" parent="G3aUP-0yOjeHawGO9L9T-134">
          <mxGeometry x="1" relative="1" as="geometry">
            <mxPoint x="31" as="offset" />
          </mxGeometry>
        </mxCell>
        <mxCell id="G3aUP-0yOjeHawGO9L9T-137" value="" style="endArrow=none;html=1;edgeStyle=orthogonalEdgeStyle;" edge="1" parent="1" target="G3aUP-0yOjeHawGO9L9T-42">
          <mxGeometry relative="1" as="geometry">
            <mxPoint x="2911" y="2970" as="sourcePoint" />
            <mxPoint x="3008.9000000000005" y="2430.1" as="targetPoint" />
            <Array as="points">
              <mxPoint x="2911" y="2920" />
              <mxPoint x="2810" y="2920" />
              <mxPoint x="2810" y="2430" />
            </Array>
          </mxGeometry>
        </mxCell>
        <mxCell id="G3aUP-0yOjeHawGO9L9T-138" value="&lt;div&gt;vortexes&lt;/div&gt;" style="edgeLabel;resizable=0;html=1;align=left;verticalAlign=bottom;" connectable="0" vertex="1" parent="G3aUP-0yOjeHawGO9L9T-137">
          <mxGeometry x="-1" relative="1" as="geometry" />
        </mxCell>
        <mxCell id="G3aUP-0yOjeHawGO9L9T-139" value="&lt;div&gt;board&lt;/div&gt;" style="edgeLabel;resizable=0;html=1;align=right;verticalAlign=bottom;" connectable="0" vertex="1" parent="G3aUP-0yOjeHawGO9L9T-137">
          <mxGeometry x="1" relative="1" as="geometry">
            <mxPoint x="31" as="offset" />
          </mxGeometry>
        </mxCell>
        <mxCell id="G3aUP-0yOjeHawGO9L9T-140" value="&lt;p style=&quot;margin: 0px ; margin-top: 4px ; text-align: center ; text-decoration: underline&quot;&gt;&lt;b&gt;flying:Phase&lt;/b&gt;&lt;/p&gt;&lt;hr&gt;&lt;p style=&quot;margin: 0px ; margin-left: 8px&quot;&gt;game = aliceVsBob&lt;br&gt;&lt;br&gt;&lt;br&gt;&lt;/p&gt;" style="verticalAlign=top;align=left;overflow=fill;fontSize=12;fontFamily=Helvetica;html=1;" vertex="1" parent="1">
          <mxGeometry x="1350" y="1010" width="160" height="90" as="geometry" />
        </mxCell>
        <mxCell id="G3aUP-0yOjeHawGO9L9T-141" value="" style="endArrow=none;html=1;edgeStyle=orthogonalEdgeStyle;" edge="1" parent="1" target="G3aUP-0yOjeHawGO9L9T-2">
          <mxGeometry relative="1" as="geometry">
            <mxPoint x="1510" y="1060" as="sourcePoint" />
            <mxPoint x="1670" y="1050" as="targetPoint" />
            <Array as="points">
              <mxPoint x="1510" y="1060" />
              <mxPoint x="1700" y="1060" />
            </Array>
          </mxGeometry>
        </mxCell>
        <mxCell id="G3aUP-0yOjeHawGO9L9T-142" value="&lt;div&gt;phase&lt;/div&gt;" style="edgeLabel;resizable=0;html=1;align=left;verticalAlign=bottom;" connectable="0" vertex="1" parent="G3aUP-0yOjeHawGO9L9T-141">
          <mxGeometry x="-1" relative="1" as="geometry" />
        </mxCell>
        <mxCell id="G3aUP-0yOjeHawGO9L9T-143" value="game" style="edgeLabel;resizable=0;html=1;align=right;verticalAlign=bottom;" connectable="0" vertex="1" parent="G3aUP-0yOjeHawGO9L9T-141">
          <mxGeometry x="1" relative="1" as="geometry">
            <mxPoint x="-10" y="20" as="offset" />
          </mxGeometry>
        </mxCell>
        <mxCell id="G3aUP-0yOjeHawGO9L9T-144" value="" style="endArrow=none;html=1;edgeStyle=orthogonalEdgeStyle;exitX=0;exitY=0.75;exitDx=0;exitDy=0;entryX=1;entryY=0.862;entryDx=0;entryDy=0;entryPerimeter=0;" edge="1" parent="1" source="G3aUP-0yOjeHawGO9L9T-3" target="G3aUP-0yOjeHawGO9L9T-2">
          <mxGeometry relative="1" as="geometry">
            <mxPoint x="2270" y="1340" as="sourcePoint" />
            <mxPoint x="1580" y="898" as="targetPoint" />
            <Array as="points">
              <mxPoint x="2250" y="1425" />
              <mxPoint x="1920" y="1425" />
              <mxPoint x="1920" y="898" />
            </Array>
          </mxGeometry>
        </mxCell>
        <mxCell id="G3aUP-0yOjeHawGO9L9T-145" value="&lt;div&gt;turn&lt;/div&gt;" style="edgeLabel;resizable=0;html=1;align=left;verticalAlign=bottom;" connectable="0" vertex="1" parent="1">
          <mxGeometry x="2210" y="1424.9999999999998" as="geometry">
            <mxPoint x="9" y="-3" as="offset" />
          </mxGeometry>
        </mxCell>
        <mxCell id="G3aUP-0yOjeHawGO9L9T-146" value="" style="endArrow=none;html=1;edgeStyle=orthogonalEdgeStyle;" edge="1" parent="1">
          <mxGeometry relative="1" as="geometry">
            <mxPoint x="530" y="2555" as="sourcePoint" />
            <mxPoint x="680" y="2554.580000000001" as="targetPoint" />
            <Array as="points">
              <mxPoint x="680" y="2555" />
            </Array>
          </mxGeometry>
        </mxCell>
        <mxCell id="G3aUP-0yOjeHawGO9L9T-147" value="&lt;div&gt;adjacenzy&lt;/div&gt;" style="edgeLabel;resizable=0;html=1;align=left;verticalAlign=bottom;" connectable="0" vertex="1" parent="G3aUP-0yOjeHawGO9L9T-146">
          <mxGeometry x="-1" relative="1" as="geometry" />
        </mxCell>
        <mxCell id="G3aUP-0yOjeHawGO9L9T-148" value="&lt;div&gt;adjacenzy&lt;/div&gt;" style="edgeLabel;resizable=0;html=1;align=right;verticalAlign=bottom;" connectable="0" vertex="1" parent="G3aUP-0yOjeHawGO9L9T-146">
          <mxGeometry x="1" relative="1" as="geometry" />
        </mxCell>
        <mxCell id="G3aUP-0yOjeHawGO9L9T-149" value="" style="endArrow=none;html=1;edgeStyle=orthogonalEdgeStyle;" edge="1" parent="1" target="G3aUP-0yOjeHawGO9L9T-52">
          <mxGeometry relative="1" as="geometry">
            <mxPoint x="430" y="2590.42" as="sourcePoint" />
            <mxPoint x="580" y="2590" as="targetPoint" />
            <Array as="points">
              <mxPoint x="430" y="2630" />
              <mxPoint x="580" y="2630" />
              <mxPoint x="580" y="3025" />
            </Array>
          </mxGeometry>
        </mxCell>
        <mxCell id="G3aUP-0yOjeHawGO9L9T-150" value="&lt;div&gt;adjacenzy&lt;/div&gt;" style="edgeLabel;resizable=0;html=1;align=left;verticalAlign=bottom;" connectable="0" vertex="1" parent="G3aUP-0yOjeHawGO9L9T-149">
          <mxGeometry x="-1" relative="1" as="geometry">
            <mxPoint y="20" as="offset" />
          </mxGeometry>
        </mxCell>
        <mxCell id="G3aUP-0yOjeHawGO9L9T-151" value="&lt;div&gt;adjacenzy&lt;/div&gt;" style="edgeLabel;resizable=0;html=1;align=right;verticalAlign=bottom;" connectable="0" vertex="1" parent="G3aUP-0yOjeHawGO9L9T-149">
          <mxGeometry x="1" relative="1" as="geometry" />
        </mxCell>
        <mxCell id="G3aUP-0yOjeHawGO9L9T-152" value="" style="endArrow=none;html=1;edgeStyle=orthogonalEdgeStyle;entryX=-0.012;entryY=0.611;entryDx=0;entryDy=0;entryPerimeter=0;" edge="1" parent="1" target="G3aUP-0yOjeHawGO9L9T-45">
          <mxGeometry relative="1" as="geometry">
            <mxPoint x="840" y="2554.5200000000004" as="sourcePoint" />
            <mxPoint x="990" y="2554.5" as="targetPoint" />
            <Array as="points" />
          </mxGeometry>
        </mxCell>
        <mxCell id="G3aUP-0yOjeHawGO9L9T-153" value="&lt;div&gt;adjacenzy&lt;/div&gt;" style="edgeLabel;resizable=0;html=1;align=left;verticalAlign=bottom;" connectable="0" vertex="1" parent="G3aUP-0yOjeHawGO9L9T-152">
          <mxGeometry x="-1" relative="1" as="geometry" />
        </mxCell>
        <mxCell id="G3aUP-0yOjeHawGO9L9T-154" value="&lt;div&gt;adjacenzy&lt;/div&gt;" style="edgeLabel;resizable=0;html=1;align=right;verticalAlign=bottom;" connectable="0" vertex="1" parent="G3aUP-0yOjeHawGO9L9T-152">
          <mxGeometry x="1" relative="1" as="geometry" />
        </mxCell>
        <mxCell id="G3aUP-0yOjeHawGO9L9T-155" value="" style="endArrow=none;html=1;edgeStyle=orthogonalEdgeStyle;entryX=0.25;entryY=1;entryDx=0;entryDy=0;" edge="1" parent="1" source="G3aUP-0yOjeHawGO9L9T-47" target="G3aUP-0yOjeHawGO9L9T-44">
          <mxGeometry relative="1" as="geometry">
            <mxPoint x="560" y="2690.02" as="sourcePoint" />
            <mxPoint x="718.0799999999999" y="2690.49" as="targetPoint" />
            <Array as="points">
              <mxPoint x="640" y="2770" />
              <mxPoint x="640" y="2610" />
              <mxPoint x="720" y="2610" />
            </Array>
          </mxGeometry>
        </mxCell>
        <mxCell id="G3aUP-0yOjeHawGO9L9T-156" value="&lt;div&gt;adjacenzy&lt;/div&gt;" style="edgeLabel;resizable=0;html=1;align=left;verticalAlign=bottom;" connectable="0" vertex="1" parent="G3aUP-0yOjeHawGO9L9T-155">
          <mxGeometry x="-1" relative="1" as="geometry" />
        </mxCell>
        <mxCell id="G3aUP-0yOjeHawGO9L9T-157" value="&lt;div&gt;adjacenzy&lt;/div&gt;" style="edgeLabel;resizable=0;html=1;align=right;verticalAlign=bottom;" connectable="0" vertex="1" parent="G3aUP-0yOjeHawGO9L9T-155">
          <mxGeometry x="1" relative="1" as="geometry">
            <mxPoint y="20" as="offset" />
          </mxGeometry>
        </mxCell>
        <mxCell id="G3aUP-0yOjeHawGO9L9T-158" value="" style="endArrow=none;html=1;edgeStyle=orthogonalEdgeStyle;entryX=0;entryY=0.635;entryDx=0;entryDy=0;entryPerimeter=0;" edge="1" parent="1" target="G3aUP-0yOjeHawGO9L9T-94">
          <mxGeometry relative="1" as="geometry">
            <mxPoint x="1070" y="2589.5300000000007" as="sourcePoint" />
            <mxPoint x="1228.0800000000008" y="2590.0000000000005" as="targetPoint" />
            <Array as="points">
              <mxPoint x="1070" y="2650" />
              <mxPoint x="2500" y="2650" />
              <mxPoint x="2500" y="2547" />
            </Array>
          </mxGeometry>
        </mxCell>
        <mxCell id="G3aUP-0yOjeHawGO9L9T-159" value="&lt;div&gt;adjacenzy&lt;/div&gt;" style="edgeLabel;resizable=0;html=1;align=left;verticalAlign=bottom;" connectable="0" vertex="1" parent="G3aUP-0yOjeHawGO9L9T-158">
          <mxGeometry x="-1" relative="1" as="geometry">
            <mxPoint y="20" as="offset" />
          </mxGeometry>
        </mxCell>
        <mxCell id="G3aUP-0yOjeHawGO9L9T-160" value="&lt;div&gt;adjacenzy&lt;/div&gt;" style="edgeLabel;resizable=0;html=1;align=right;verticalAlign=bottom;" connectable="0" vertex="1" parent="G3aUP-0yOjeHawGO9L9T-158">
          <mxGeometry x="1" relative="1" as="geometry" />
        </mxCell>
        <mxCell id="G3aUP-0yOjeHawGO9L9T-161" value="" style="endArrow=none;html=1;edgeStyle=orthogonalEdgeStyle;entryX=0.5;entryY=1;entryDx=0;entryDy=0;exitX=0.875;exitY=0;exitDx=0;exitDy=0;exitPerimeter=0;" edge="1" parent="1" source="G3aUP-0yOjeHawGO9L9T-47" target="G3aUP-0yOjeHawGO9L9T-46">
          <mxGeometry relative="1" as="geometry">
            <mxPoint x="500" y="2700" as="sourcePoint" />
            <mxPoint x="1390" y="2610" as="targetPoint" />
            <Array as="points">
              <mxPoint x="500" y="2700" />
              <mxPoint x="1390" y="2700" />
            </Array>
          </mxGeometry>
        </mxCell>
        <mxCell id="G3aUP-0yOjeHawGO9L9T-162" value="&lt;div&gt;adjacenzy&lt;/div&gt;" style="edgeLabel;resizable=0;html=1;align=left;verticalAlign=bottom;" connectable="0" vertex="1" parent="G3aUP-0yOjeHawGO9L9T-161">
          <mxGeometry x="-1" relative="1" as="geometry" />
        </mxCell>
        <mxCell id="G3aUP-0yOjeHawGO9L9T-163" value="&lt;div&gt;adjacenzy&lt;/div&gt;" style="edgeLabel;resizable=0;html=1;align=right;verticalAlign=bottom;" connectable="0" vertex="1" parent="G3aUP-0yOjeHawGO9L9T-161">
          <mxGeometry x="1" relative="1" as="geometry">
            <mxPoint x="-10" y="21" as="offset" />
          </mxGeometry>
        </mxCell>
        <mxCell id="G3aUP-0yOjeHawGO9L9T-164" value="" style="endArrow=none;html=1;edgeStyle=orthogonalEdgeStyle;entryX=0;entryY=0.75;entryDx=0;entryDy=0;exitX=1;exitY=0.5;exitDx=0;exitDy=0;" edge="1" parent="1" source="G3aUP-0yOjeHawGO9L9T-53" target="G3aUP-0yOjeHawGO9L9T-46">
          <mxGeometry relative="1" as="geometry">
            <mxPoint x="1190" y="3020" as="sourcePoint" />
            <mxPoint x="1130" y="2679.9999999999995" as="targetPoint" />
            <Array as="points">
              <mxPoint x="1150" y="3020" />
              <mxPoint x="1190" y="3020" />
              <mxPoint x="1190" y="2578" />
            </Array>
          </mxGeometry>
        </mxCell>
        <mxCell id="G3aUP-0yOjeHawGO9L9T-165" value="&lt;div&gt;adjacenzy&lt;/div&gt;" style="edgeLabel;resizable=0;html=1;align=left;verticalAlign=bottom;" connectable="0" vertex="1" parent="G3aUP-0yOjeHawGO9L9T-164">
          <mxGeometry x="-1" relative="1" as="geometry">
            <mxPoint y="16" as="offset" />
          </mxGeometry>
        </mxCell>
        <mxCell id="G3aUP-0yOjeHawGO9L9T-166" value="&lt;div&gt;adjacenzy&lt;/div&gt;" style="edgeLabel;resizable=0;html=1;align=right;verticalAlign=bottom;" connectable="0" vertex="1" parent="G3aUP-0yOjeHawGO9L9T-164">
          <mxGeometry x="1" relative="1" as="geometry" />
        </mxCell>
        <mxCell id="G3aUP-0yOjeHawGO9L9T-167" value="" style="endArrow=none;html=1;edgeStyle=orthogonalEdgeStyle;exitX=1.02;exitY=0.685;exitDx=0;exitDy=0;exitPerimeter=0;" edge="1" parent="1" source="G3aUP-0yOjeHawGO9L9T-47">
          <mxGeometry relative="1" as="geometry">
            <mxPoint x="509.97" y="2790.42" as="sourcePoint" />
            <mxPoint x="659.9700000000003" y="2790" as="targetPoint" />
            <Array as="points">
              <mxPoint x="520" y="2792" />
              <mxPoint x="520" y="2790" />
            </Array>
          </mxGeometry>
        </mxCell>
        <mxCell id="G3aUP-0yOjeHawGO9L9T-168" value="&lt;div&gt;adjacenzy&lt;/div&gt;" style="edgeLabel;resizable=0;html=1;align=left;verticalAlign=bottom;" connectable="0" vertex="1" parent="G3aUP-0yOjeHawGO9L9T-167">
          <mxGeometry x="-1" relative="1" as="geometry" />
        </mxCell>
        <mxCell id="G3aUP-0yOjeHawGO9L9T-169" value="&lt;div&gt;adjacenzy&lt;/div&gt;" style="edgeLabel;resizable=0;html=1;align=right;verticalAlign=bottom;" connectable="0" vertex="1" parent="G3aUP-0yOjeHawGO9L9T-167">
          <mxGeometry x="1" relative="1" as="geometry">
            <mxPoint y="20" as="offset" />
          </mxGeometry>
        </mxCell>
        <mxCell id="G3aUP-0yOjeHawGO9L9T-170" value="" style="endArrow=none;html=1;edgeStyle=orthogonalEdgeStyle;entryX=0;entryY=0.75;entryDx=0;entryDy=0;" edge="1" parent="1" target="G3aUP-0yOjeHawGO9L9T-93">
          <mxGeometry relative="1" as="geometry">
            <mxPoint x="820" y="2784.5200000000004" as="sourcePoint" />
            <mxPoint x="970" y="2784.5" as="targetPoint" />
            <Array as="points">
              <mxPoint x="990" y="2785" />
              <mxPoint x="990" y="2640" />
              <mxPoint x="2190" y="2640" />
              <mxPoint x="2190" y="2555" />
            </Array>
          </mxGeometry>
        </mxCell>
        <mxCell id="G3aUP-0yOjeHawGO9L9T-171" value="&lt;div&gt;adjacenzy&lt;/div&gt;" style="edgeLabel;resizable=0;html=1;align=left;verticalAlign=bottom;" connectable="0" vertex="1" parent="G3aUP-0yOjeHawGO9L9T-170">
          <mxGeometry x="-1" relative="1" as="geometry" />
        </mxCell>
        <mxCell id="G3aUP-0yOjeHawGO9L9T-172" value="&lt;div&gt;adjacenzy&lt;/div&gt;" style="edgeLabel;resizable=0;html=1;align=right;verticalAlign=bottom;" connectable="0" vertex="1" parent="G3aUP-0yOjeHawGO9L9T-170">
          <mxGeometry x="1" relative="1" as="geometry" />
        </mxCell>
        <mxCell id="G3aUP-0yOjeHawGO9L9T-173" value="" style="endArrow=none;html=1;edgeStyle=orthogonalEdgeStyle;" edge="1" parent="1">
          <mxGeometry relative="1" as="geometry">
            <mxPoint x="1160" y="2790.430000000001" as="sourcePoint" />
            <mxPoint x="1310" y="2790.0099999999993" as="targetPoint" />
            <Array as="points">
              <mxPoint x="1310" y="2790.43" />
            </Array>
          </mxGeometry>
        </mxCell>
        <mxCell id="G3aUP-0yOjeHawGO9L9T-174" value="&lt;div&gt;adjacenzy&lt;/div&gt;" style="edgeLabel;resizable=0;html=1;align=left;verticalAlign=bottom;" connectable="0" vertex="1" parent="G3aUP-0yOjeHawGO9L9T-173">
          <mxGeometry x="-1" relative="1" as="geometry" />
        </mxCell>
        <mxCell id="G3aUP-0yOjeHawGO9L9T-175" value="&lt;div&gt;adjacenzy&lt;/div&gt;" style="edgeLabel;resizable=0;html=1;align=right;verticalAlign=bottom;" connectable="0" vertex="1" parent="G3aUP-0yOjeHawGO9L9T-173">
          <mxGeometry x="1" relative="1" as="geometry" />
        </mxCell>
        <mxCell id="G3aUP-0yOjeHawGO9L9T-176" value="" style="endArrow=none;html=1;edgeStyle=orthogonalEdgeStyle;exitX=0.375;exitY=1;exitDx=0;exitDy=0;exitPerimeter=0;" edge="1" parent="1" source="G3aUP-0yOjeHawGO9L9T-50" target="G3aUP-0yOjeHawGO9L9T-54">
          <mxGeometry relative="1" as="geometry">
            <mxPoint x="1060" y="2870" as="sourcePoint" />
            <mxPoint x="1210" y="2870.0099999999993" as="targetPoint" />
            <Array as="points">
              <mxPoint x="1060" y="2870" />
              <mxPoint x="1347" y="2870" />
            </Array>
          </mxGeometry>
        </mxCell>
        <mxCell id="G3aUP-0yOjeHawGO9L9T-177" value="&lt;div&gt;adjacenzy&lt;/div&gt;" style="edgeLabel;resizable=0;html=1;align=left;verticalAlign=bottom;" connectable="0" vertex="1" parent="G3aUP-0yOjeHawGO9L9T-176">
          <mxGeometry x="-1" relative="1" as="geometry">
            <mxPoint y="20" as="offset" />
          </mxGeometry>
        </mxCell>
        <mxCell id="G3aUP-0yOjeHawGO9L9T-178" value="&lt;div&gt;adjacenzy&lt;/div&gt;" style="edgeLabel;resizable=0;html=1;align=right;verticalAlign=bottom;" connectable="0" vertex="1" parent="G3aUP-0yOjeHawGO9L9T-176">
          <mxGeometry x="1" relative="1" as="geometry" />
        </mxCell>
        <mxCell id="G3aUP-0yOjeHawGO9L9T-179" value="" style="endArrow=none;html=1;edgeStyle=orthogonalEdgeStyle;exitX=0.994;exitY=0.911;exitDx=0;exitDy=0;exitPerimeter=0;" edge="1" parent="1" source="G3aUP-0yOjeHawGO9L9T-47">
          <mxGeometry relative="1" as="geometry">
            <mxPoint x="1160" y="2820" as="sourcePoint" />
            <mxPoint x="1310" y="2820.0099999999993" as="targetPoint" />
            <Array as="points">
              <mxPoint x="530" y="2812" />
              <mxPoint x="530" y="2860" />
              <mxPoint x="1280" y="2860" />
              <mxPoint x="1280" y="2820" />
            </Array>
          </mxGeometry>
        </mxCell>
        <mxCell id="G3aUP-0yOjeHawGO9L9T-180" value="&lt;div&gt;adjacenzy&lt;/div&gt;" style="edgeLabel;resizable=0;html=1;align=left;verticalAlign=bottom;" connectable="0" vertex="1" parent="G3aUP-0yOjeHawGO9L9T-179">
          <mxGeometry x="-1" relative="1" as="geometry" />
        </mxCell>
        <mxCell id="G3aUP-0yOjeHawGO9L9T-181" value="&lt;div&gt;adjacenzy&lt;/div&gt;" style="edgeLabel;resizable=0;html=1;align=right;verticalAlign=bottom;" connectable="0" vertex="1" parent="G3aUP-0yOjeHawGO9L9T-179">
          <mxGeometry x="1" relative="1" as="geometry" />
        </mxCell>
        <mxCell id="G3aUP-0yOjeHawGO9L9T-182" value="" style="endArrow=none;html=1;edgeStyle=orthogonalEdgeStyle;" edge="1" parent="1" target="G3aUP-0yOjeHawGO9L9T-51">
          <mxGeometry relative="1" as="geometry">
            <mxPoint x="1360" y="2830" as="sourcePoint" />
            <mxPoint x="1510" y="2830.0099999999993" as="targetPoint" />
            <Array as="points">
              <mxPoint x="1360" y="2860" />
              <mxPoint x="1510" y="2860" />
              <mxPoint x="1510" y="2960" />
              <mxPoint x="500" y="2960" />
            </Array>
          </mxGeometry>
        </mxCell>
        <mxCell id="G3aUP-0yOjeHawGO9L9T-183" value="&lt;div&gt;adjacenzy&lt;/div&gt;" style="edgeLabel;resizable=0;html=1;align=left;verticalAlign=bottom;" connectable="0" vertex="1" parent="G3aUP-0yOjeHawGO9L9T-182">
          <mxGeometry x="-1" relative="1" as="geometry">
            <mxPoint y="20" as="offset" />
          </mxGeometry>
        </mxCell>
        <mxCell id="G3aUP-0yOjeHawGO9L9T-184" value="&lt;div&gt;adjacenzy&lt;/div&gt;" style="edgeLabel;resizable=0;html=1;align=right;verticalAlign=bottom;" connectable="0" vertex="1" parent="G3aUP-0yOjeHawGO9L9T-182">
          <mxGeometry x="1" relative="1" as="geometry">
            <mxPoint x="60" as="offset" />
          </mxGeometry>
        </mxCell>
        <mxCell id="G3aUP-0yOjeHawGO9L9T-185" value="" style="endArrow=none;html=1;edgeStyle=orthogonalEdgeStyle;exitX=0;exitY=0.5;exitDx=0;exitDy=0;entryX=1;entryY=0.75;entryDx=0;entryDy=0;" edge="1" parent="1" source="G3aUP-0yOjeHawGO9L9T-91" target="G3aUP-0yOjeHawGO9L9T-51">
          <mxGeometry relative="1" as="geometry">
            <mxPoint x="1380" y="2880" as="sourcePoint" />
            <mxPoint x="520" y="3030" as="targetPoint" />
            <Array as="points">
              <mxPoint x="1630" y="2535" />
              <mxPoint x="1630" y="2890" />
              <mxPoint x="640" y="2890" />
              <mxPoint x="640" y="3050" />
              <mxPoint x="520" y="3050" />
            </Array>
          </mxGeometry>
        </mxCell>
        <mxCell id="G3aUP-0yOjeHawGO9L9T-186" value="&lt;div&gt;adjacenzy&lt;/div&gt;" style="edgeLabel;resizable=0;html=1;align=left;verticalAlign=bottom;" connectable="0" vertex="1" parent="G3aUP-0yOjeHawGO9L9T-185">
          <mxGeometry x="-1" relative="1" as="geometry">
            <mxPoint x="-60" y="20" as="offset" />
          </mxGeometry>
        </mxCell>
        <mxCell id="G3aUP-0yOjeHawGO9L9T-187" value="&lt;div&gt;adjacenzy&lt;/div&gt;" style="edgeLabel;resizable=0;html=1;align=right;verticalAlign=bottom;" connectable="0" vertex="1" parent="G3aUP-0yOjeHawGO9L9T-185">
          <mxGeometry x="1" relative="1" as="geometry">
            <mxPoint x="60" as="offset" />
          </mxGeometry>
        </mxCell>
        <mxCell id="G3aUP-0yOjeHawGO9L9T-188" value="" style="endArrow=none;html=1;edgeStyle=orthogonalEdgeStyle;entryX=-0.012;entryY=0.571;entryDx=0;entryDy=0;entryPerimeter=0;" edge="1" parent="1" target="G3aUP-0yOjeHawGO9L9T-53">
          <mxGeometry relative="1" as="geometry">
            <mxPoint x="830" y="3030" as="sourcePoint" />
            <mxPoint x="980" y="3030.0099999999993" as="targetPoint" />
            <Array as="points">
              <mxPoint x="980" y="3030" />
            </Array>
          </mxGeometry>
        </mxCell>
        <mxCell id="G3aUP-0yOjeHawGO9L9T-189" value="&lt;div&gt;adjacenzy&lt;/div&gt;" style="edgeLabel;resizable=0;html=1;align=left;verticalAlign=bottom;" connectable="0" vertex="1" parent="G3aUP-0yOjeHawGO9L9T-188">
          <mxGeometry x="-1" relative="1" as="geometry" />
        </mxCell>
        <mxCell id="G3aUP-0yOjeHawGO9L9T-190" value="&lt;div&gt;adjacenzy&lt;/div&gt;" style="edgeLabel;resizable=0;html=1;align=right;verticalAlign=bottom;" connectable="0" vertex="1" parent="G3aUP-0yOjeHawGO9L9T-188">
          <mxGeometry x="1" relative="1" as="geometry" />
        </mxCell>
        <mxCell id="G3aUP-0yOjeHawGO9L9T-191" value="" style="endArrow=none;html=1;edgeStyle=orthogonalEdgeStyle;entryX=0.5;entryY=1;entryDx=0;entryDy=0;exitX=0.438;exitY=1;exitDx=0;exitDy=0;exitPerimeter=0;" edge="1" parent="1" source="G3aUP-0yOjeHawGO9L9T-52" target="G3aUP-0yOjeHawGO9L9T-101">
          <mxGeometry relative="1" as="geometry">
            <mxPoint x="740" y="3110" as="sourcePoint" />
            <mxPoint x="2300" y="3110" as="targetPoint" />
            <Array as="points">
              <mxPoint x="740" y="3110" />
              <mxPoint x="2290" y="3110" />
            </Array>
          </mxGeometry>
        </mxCell>
        <mxCell id="G3aUP-0yOjeHawGO9L9T-192" value="&lt;div&gt;adjacenzy&lt;/div&gt;" style="edgeLabel;resizable=0;html=1;align=left;verticalAlign=bottom;" connectable="0" vertex="1" parent="G3aUP-0yOjeHawGO9L9T-191">
          <mxGeometry x="-1" relative="1" as="geometry">
            <mxPoint x="10" y="20" as="offset" />
          </mxGeometry>
        </mxCell>
        <mxCell id="G3aUP-0yOjeHawGO9L9T-193" value="&lt;div&gt;adjacenzy&lt;/div&gt;" style="edgeLabel;resizable=0;html=1;align=right;verticalAlign=bottom;" connectable="0" vertex="1" parent="G3aUP-0yOjeHawGO9L9T-191">
          <mxGeometry x="1" relative="1" as="geometry">
            <mxPoint x="-10" y="20" as="offset" />
          </mxGeometry>
        </mxCell>
        <mxCell id="G3aUP-0yOjeHawGO9L9T-194" value="" style="endArrow=none;html=1;edgeStyle=orthogonalEdgeStyle;" edge="1" parent="1">
          <mxGeometry relative="1" as="geometry">
            <mxPoint x="1150" y="3059.24" as="sourcePoint" />
            <mxPoint x="1300" y="3058.8200000000006" as="targetPoint" />
            <Array as="points">
              <mxPoint x="1300" y="3059.2400000000002" />
            </Array>
          </mxGeometry>
        </mxCell>
        <mxCell id="G3aUP-0yOjeHawGO9L9T-195" value="&lt;div&gt;adjacenzy&lt;/div&gt;" style="edgeLabel;resizable=0;html=1;align=left;verticalAlign=bottom;" connectable="0" vertex="1" parent="G3aUP-0yOjeHawGO9L9T-194">
          <mxGeometry x="-1" relative="1" as="geometry" />
        </mxCell>
        <mxCell id="G3aUP-0yOjeHawGO9L9T-196" value="&lt;div&gt;adjacenzy&lt;/div&gt;" style="edgeLabel;resizable=0;html=1;align=right;verticalAlign=bottom;" connectable="0" vertex="1" parent="G3aUP-0yOjeHawGO9L9T-194">
          <mxGeometry x="1" relative="1" as="geometry" />
        </mxCell>
        <mxCell id="G3aUP-0yOjeHawGO9L9T-197" value="" style="endArrow=none;html=1;edgeStyle=orthogonalEdgeStyle;" edge="1" parent="1" target="G3aUP-0yOjeHawGO9L9T-95">
          <mxGeometry relative="1" as="geometry">
            <mxPoint x="1460" y="3024.0099999999993" as="sourcePoint" />
            <mxPoint x="1610" y="3023.5899999999997" as="targetPoint" />
            <Array as="points">
              <mxPoint x="1770" y="3024" />
              <mxPoint x="1770" y="2610" />
              <mxPoint x="2930" y="2610" />
            </Array>
          </mxGeometry>
        </mxCell>
        <mxCell id="G3aUP-0yOjeHawGO9L9T-198" value="&lt;div&gt;adjacenzy&lt;/div&gt;" style="edgeLabel;resizable=0;html=1;align=left;verticalAlign=bottom;" connectable="0" vertex="1" parent="G3aUP-0yOjeHawGO9L9T-197">
          <mxGeometry x="-1" relative="1" as="geometry" />
        </mxCell>
        <mxCell id="G3aUP-0yOjeHawGO9L9T-199" value="&lt;div&gt;adjacenzy&lt;/div&gt;" style="edgeLabel;resizable=0;html=1;align=right;verticalAlign=bottom;" connectable="0" vertex="1" parent="G3aUP-0yOjeHawGO9L9T-197">
          <mxGeometry x="1" relative="1" as="geometry">
            <mxPoint x="-10" y="21" as="offset" />
          </mxGeometry>
        </mxCell>
        <mxCell id="G3aUP-0yOjeHawGO9L9T-200" value="" style="endArrow=none;html=1;edgeStyle=orthogonalEdgeStyle;" edge="1" parent="1">
          <mxGeometry relative="1" as="geometry">
            <mxPoint x="2070" y="2529.7199999999993" as="sourcePoint" />
            <mxPoint x="2220" y="2529.2999999999993" as="targetPoint" />
            <Array as="points">
              <mxPoint x="2220" y="2529.72" />
            </Array>
          </mxGeometry>
        </mxCell>
        <mxCell id="G3aUP-0yOjeHawGO9L9T-201" value="&lt;div&gt;adjacenzy&lt;/div&gt;" style="edgeLabel;resizable=0;html=1;align=left;verticalAlign=bottom;" connectable="0" vertex="1" parent="G3aUP-0yOjeHawGO9L9T-200">
          <mxGeometry x="-1" relative="1" as="geometry">
            <mxPoint y="21" as="offset" />
          </mxGeometry>
        </mxCell>
        <mxCell id="G3aUP-0yOjeHawGO9L9T-202" value="&lt;div&gt;adjacenzy&lt;/div&gt;" style="edgeLabel;resizable=0;html=1;align=right;verticalAlign=bottom;" connectable="0" vertex="1" parent="G3aUP-0yOjeHawGO9L9T-200">
          <mxGeometry x="1" relative="1" as="geometry" />
        </mxCell>
        <mxCell id="G3aUP-0yOjeHawGO9L9T-203" value="" style="endArrow=none;html=1;edgeStyle=orthogonalEdgeStyle;exitX=0.5;exitY=1;exitDx=0;exitDy=0;entryX=0.351;entryY=0.019;entryDx=0;entryDy=0;entryPerimeter=0;" edge="1" parent="1" source="G3aUP-0yOjeHawGO9L9T-91" target="G3aUP-0yOjeHawGO9L9T-97">
          <mxGeometry relative="1" as="geometry">
            <mxPoint x="1990" y="2600.43" as="sourcePoint" />
            <mxPoint x="2140" y="2600.0099999999998" as="targetPoint" />
            <Array as="points">
              <mxPoint x="1990" y="2600" />
              <mxPoint x="2120" y="2600" />
              <mxPoint x="2120" y="2690" />
              <mxPoint x="2256" y="2690" />
            </Array>
          </mxGeometry>
        </mxCell>
        <mxCell id="G3aUP-0yOjeHawGO9L9T-204" value="&lt;div&gt;adjacenzy&lt;/div&gt;" style="edgeLabel;resizable=0;html=1;align=left;verticalAlign=bottom;" connectable="0" vertex="1" parent="G3aUP-0yOjeHawGO9L9T-203">
          <mxGeometry x="-1" relative="1" as="geometry">
            <mxPoint x="10" y="20" as="offset" />
          </mxGeometry>
        </mxCell>
        <mxCell id="G3aUP-0yOjeHawGO9L9T-205" value="&lt;div&gt;adjacenzy&lt;/div&gt;" style="edgeLabel;resizable=0;html=1;align=right;verticalAlign=bottom;" connectable="0" vertex="1" parent="G3aUP-0yOjeHawGO9L9T-203">
          <mxGeometry x="1" relative="1" as="geometry">
            <mxPoint y="-2" as="offset" />
          </mxGeometry>
        </mxCell>
        <mxCell id="G3aUP-0yOjeHawGO9L9T-206" value="" style="endArrow=none;html=1;edgeStyle=orthogonalEdgeStyle;exitX=1;exitY=0.25;exitDx=0;exitDy=0;" edge="1" parent="1" source="G3aUP-0yOjeHawGO9L9T-93">
          <mxGeometry relative="1" as="geometry">
            <mxPoint x="2390" y="2510.43" as="sourcePoint" />
            <mxPoint x="2540" y="2510.01" as="targetPoint" />
            <Array as="points">
              <mxPoint x="2380" y="2510" />
            </Array>
          </mxGeometry>
        </mxCell>
        <mxCell id="G3aUP-0yOjeHawGO9L9T-207" value="&lt;div&gt;adjacenzy&lt;/div&gt;" style="edgeLabel;resizable=0;html=1;align=left;verticalAlign=bottom;" connectable="0" vertex="1" parent="G3aUP-0yOjeHawGO9L9T-206">
          <mxGeometry x="-1" relative="1" as="geometry" />
        </mxCell>
        <mxCell id="G3aUP-0yOjeHawGO9L9T-208" value="&lt;div&gt;adjacenzy&lt;/div&gt;" style="edgeLabel;resizable=0;html=1;align=right;verticalAlign=bottom;" connectable="0" vertex="1" parent="G3aUP-0yOjeHawGO9L9T-206">
          <mxGeometry x="1" relative="1" as="geometry" />
        </mxCell>
        <mxCell id="G3aUP-0yOjeHawGO9L9T-209" value="" style="endArrow=none;html=1;edgeStyle=orthogonalEdgeStyle;entryX=0.878;entryY=-0.029;entryDx=0;entryDy=0;entryPerimeter=0;" edge="1" parent="1" target="G3aUP-0yOjeHawGO9L9T-100">
          <mxGeometry relative="1" as="geometry">
            <mxPoint x="2310" y="2580" as="sourcePoint" />
            <mxPoint x="2040" y="2950" as="targetPoint" />
            <Array as="points">
              <mxPoint x="2310" y="2580" />
              <mxPoint x="2310" y="2670" />
              <mxPoint x="2190" y="2670" />
              <mxPoint x="2190" y="2950" />
              <mxPoint x="2040" y="2950" />
            </Array>
          </mxGeometry>
        </mxCell>
        <mxCell id="G3aUP-0yOjeHawGO9L9T-210" value="&lt;div&gt;adjacenzy&lt;/div&gt;" style="edgeLabel;resizable=0;html=1;align=left;verticalAlign=bottom;" connectable="0" vertex="1" parent="G3aUP-0yOjeHawGO9L9T-209">
          <mxGeometry x="-1" relative="1" as="geometry">
            <mxPoint x="-60" y="20" as="offset" />
          </mxGeometry>
        </mxCell>
        <mxCell id="G3aUP-0yOjeHawGO9L9T-211" value="&lt;div&gt;adjacenzy&lt;/div&gt;" style="edgeLabel;resizable=0;html=1;align=right;verticalAlign=bottom;" connectable="0" vertex="1" parent="G3aUP-0yOjeHawGO9L9T-209">
          <mxGeometry x="1" relative="1" as="geometry">
            <mxPoint x="60" as="offset" />
          </mxGeometry>
        </mxCell>
        <mxCell id="G3aUP-0yOjeHawGO9L9T-212" value="" style="endArrow=none;html=1;edgeStyle=orthogonalEdgeStyle;exitX=1;exitY=0.25;exitDx=0;exitDy=0;entryX=0.646;entryY=-0.06;entryDx=0;entryDy=0;entryPerimeter=0;" edge="1" parent="1" target="G3aUP-0yOjeHawGO9L9T-103">
          <mxGeometry relative="1" as="geometry">
            <mxPoint x="2610" y="2584.99" as="sourcePoint" />
            <mxPoint x="2770" y="2589.9999999999995" as="targetPoint" />
            <Array as="points">
              <mxPoint x="2610" y="2640" />
              <mxPoint x="2730" y="2640" />
              <mxPoint x="2730" y="2940" />
              <mxPoint x="2943" y="2940" />
            </Array>
          </mxGeometry>
        </mxCell>
        <mxCell id="G3aUP-0yOjeHawGO9L9T-213" value="&lt;div&gt;adjacenzy&lt;/div&gt;" style="edgeLabel;resizable=0;html=1;align=left;verticalAlign=bottom;" connectable="0" vertex="1" parent="G3aUP-0yOjeHawGO9L9T-212">
          <mxGeometry x="-1" relative="1" as="geometry">
            <mxPoint x="10" y="15" as="offset" />
          </mxGeometry>
        </mxCell>
        <mxCell id="G3aUP-0yOjeHawGO9L9T-214" value="&lt;div&gt;adjacenzy&lt;/div&gt;" style="edgeLabel;resizable=0;html=1;align=right;verticalAlign=bottom;" connectable="0" vertex="1" parent="G3aUP-0yOjeHawGO9L9T-212">
          <mxGeometry x="1" relative="1" as="geometry">
            <mxPoint x="-33" as="offset" />
          </mxGeometry>
        </mxCell>
        <mxCell id="G3aUP-0yOjeHawGO9L9T-215" value="" style="endArrow=none;html=1;edgeStyle=orthogonalEdgeStyle;exitX=1;exitY=0.25;exitDx=0;exitDy=0;entryX=1.003;entryY=0.606;entryDx=0;entryDy=0;entryPerimeter=0;" edge="1" parent="1" target="G3aUP-0yOjeHawGO9L9T-96">
          <mxGeometry relative="1" as="geometry">
            <mxPoint x="2950" y="2590" as="sourcePoint" />
            <mxPoint x="2120" y="2770" as="targetPoint" />
            <Array as="points">
              <mxPoint x="2950" y="2700" />
              <mxPoint x="2120" y="2700" />
              <mxPoint x="2120" y="2775" />
            </Array>
          </mxGeometry>
        </mxCell>
        <mxCell id="G3aUP-0yOjeHawGO9L9T-216" value="&lt;div&gt;adjacenzy&lt;/div&gt;" style="edgeLabel;resizable=0;html=1;align=left;verticalAlign=bottom;" connectable="0" vertex="1" parent="G3aUP-0yOjeHawGO9L9T-215">
          <mxGeometry x="-1" relative="1" as="geometry">
            <mxPoint x="10" y="20" as="offset" />
          </mxGeometry>
        </mxCell>
        <mxCell id="G3aUP-0yOjeHawGO9L9T-217" value="&lt;div&gt;adjacenzy&lt;/div&gt;" style="edgeLabel;resizable=0;html=1;align=right;verticalAlign=bottom;" connectable="0" vertex="1" parent="G3aUP-0yOjeHawGO9L9T-215">
          <mxGeometry x="1" relative="1" as="geometry">
            <mxPoint x="60" as="offset" />
          </mxGeometry>
        </mxCell>
        <mxCell id="G3aUP-0yOjeHawGO9L9T-218" value="" style="endArrow=none;html=1;edgeStyle=orthogonalEdgeStyle;exitX=0.449;exitY=1.019;exitDx=0;exitDy=0;exitPerimeter=0;entryX=0.419;entryY=1.036;entryDx=0;entryDy=0;entryPerimeter=0;" edge="1" parent="1" source="G3aUP-0yOjeHawGO9L9T-96" target="G3aUP-0yOjeHawGO9L9T-97">
          <mxGeometry relative="1" as="geometry">
            <mxPoint x="1970" y="2830" as="sourcePoint" />
            <mxPoint x="2130" y="2835.0099999999998" as="targetPoint" />
            <Array as="points">
              <mxPoint x="1970" y="2812" />
              <mxPoint x="1970" y="2835" />
              <mxPoint x="2267" y="2835" />
            </Array>
          </mxGeometry>
        </mxCell>
        <mxCell id="G3aUP-0yOjeHawGO9L9T-219" value="&lt;div&gt;adjacenzy&lt;/div&gt;" style="edgeLabel;resizable=0;html=1;align=left;verticalAlign=bottom;" connectable="0" vertex="1" parent="G3aUP-0yOjeHawGO9L9T-218">
          <mxGeometry x="-1" relative="1" as="geometry">
            <mxPoint y="18" as="offset" />
          </mxGeometry>
        </mxCell>
        <mxCell id="G3aUP-0yOjeHawGO9L9T-220" value="&lt;div&gt;adjacenzy&lt;/div&gt;" style="edgeLabel;resizable=0;html=1;align=right;verticalAlign=bottom;" connectable="0" vertex="1" parent="G3aUP-0yOjeHawGO9L9T-218">
          <mxGeometry x="1" relative="1" as="geometry">
            <mxPoint x="63" y="17" as="offset" />
          </mxGeometry>
        </mxCell>
        <mxCell id="G3aUP-0yOjeHawGO9L9T-221" value="" style="endArrow=none;html=1;edgeStyle=orthogonalEdgeStyle;exitX=1;exitY=0.25;exitDx=0;exitDy=0;entryX=-0.018;entryY=0.644;entryDx=0;entryDy=0;entryPerimeter=0;" edge="1" parent="1" target="G3aUP-0yOjeHawGO9L9T-98">
          <mxGeometry relative="1" as="geometry">
            <mxPoint x="2700" y="2782.4700000000003" as="sourcePoint" />
            <mxPoint x="2860" y="2787.4799999999996" as="targetPoint" />
            <Array as="points">
              <mxPoint x="2700" y="2788" />
            </Array>
          </mxGeometry>
        </mxCell>
        <mxCell id="G3aUP-0yOjeHawGO9L9T-222" value="&lt;div&gt;adjacenzy&lt;/div&gt;" style="edgeLabel;resizable=0;html=1;align=left;verticalAlign=bottom;" connectable="0" vertex="1" parent="G3aUP-0yOjeHawGO9L9T-221">
          <mxGeometry x="-1" relative="1" as="geometry">
            <mxPoint y="28" as="offset" />
          </mxGeometry>
        </mxCell>
        <mxCell id="G3aUP-0yOjeHawGO9L9T-223" value="&lt;div&gt;adjacenzy&lt;/div&gt;" style="edgeLabel;resizable=0;html=1;align=right;verticalAlign=bottom;" connectable="0" vertex="1" parent="G3aUP-0yOjeHawGO9L9T-221">
          <mxGeometry x="1" relative="1" as="geometry" />
        </mxCell>
        <mxCell id="G3aUP-0yOjeHawGO9L9T-224" value="" style="endArrow=none;html=1;edgeStyle=orthogonalEdgeStyle;exitX=1;exitY=0.25;exitDx=0;exitDy=0;entryX=0.099;entryY=-0.018;entryDx=0;entryDy=0;entryPerimeter=0;" edge="1" parent="1" target="G3aUP-0yOjeHawGO9L9T-53">
          <mxGeometry relative="1" as="geometry">
            <mxPoint x="2610" y="2820" as="sourcePoint" />
            <mxPoint x="1008.2352941176471" y="2960" as="targetPoint" />
            <Array as="points">
              <mxPoint x="2610" y="2910" />
              <mxPoint x="1006" y="2910" />
            </Array>
          </mxGeometry>
        </mxCell>
        <mxCell id="G3aUP-0yOjeHawGO9L9T-225" value="&lt;div&gt;adjacenzy&lt;/div&gt;" style="edgeLabel;resizable=0;html=1;align=left;verticalAlign=bottom;" connectable="0" vertex="1" parent="G3aUP-0yOjeHawGO9L9T-224">
          <mxGeometry x="-1" relative="1" as="geometry">
            <mxPoint y="28" as="offset" />
          </mxGeometry>
        </mxCell>
        <mxCell id="G3aUP-0yOjeHawGO9L9T-226" value="&lt;div&gt;adjacenzy&lt;/div&gt;" style="edgeLabel;resizable=0;html=1;align=right;verticalAlign=bottom;" connectable="0" vertex="1" parent="G3aUP-0yOjeHawGO9L9T-224">
          <mxGeometry x="1" relative="1" as="geometry">
            <mxPoint x="54" y="3" as="offset" />
          </mxGeometry>
        </mxCell>
        <mxCell id="G3aUP-0yOjeHawGO9L9T-227" value="" style="endArrow=none;html=1;edgeStyle=orthogonalEdgeStyle;exitX=1;exitY=0.25;exitDx=0;exitDy=0;entryX=0.25;entryY=1;entryDx=0;entryDy=0;" edge="1" parent="1" target="G3aUP-0yOjeHawGO9L9T-96">
          <mxGeometry relative="1" as="geometry">
            <mxPoint x="2920" y="2820" as="sourcePoint" />
            <mxPoint x="3080" y="2825.0099999999998" as="targetPoint" />
            <Array as="points">
              <mxPoint x="2920" y="2860" />
              <mxPoint x="1940" y="2860" />
            </Array>
          </mxGeometry>
        </mxCell>
        <mxCell id="G3aUP-0yOjeHawGO9L9T-228" value="&lt;div&gt;adjacenzy&lt;/div&gt;" style="edgeLabel;resizable=0;html=1;align=left;verticalAlign=bottom;" connectable="0" vertex="1" parent="G3aUP-0yOjeHawGO9L9T-227">
          <mxGeometry x="-1" relative="1" as="geometry">
            <mxPoint y="20" as="offset" />
          </mxGeometry>
        </mxCell>
        <mxCell id="G3aUP-0yOjeHawGO9L9T-229" value="&lt;div&gt;adjacenzy&lt;/div&gt;" style="edgeLabel;resizable=0;html=1;align=right;verticalAlign=bottom;" connectable="0" vertex="1" parent="G3aUP-0yOjeHawGO9L9T-227">
          <mxGeometry x="1" relative="1" as="geometry">
            <mxPoint y="20" as="offset" />
          </mxGeometry>
        </mxCell>
        <mxCell id="G3aUP-0yOjeHawGO9L9T-230" value="" style="endArrow=none;html=1;edgeStyle=orthogonalEdgeStyle;exitX=1;exitY=0.25;exitDx=0;exitDy=0;" edge="1" parent="1" target="G3aUP-0yOjeHawGO9L9T-102">
          <mxGeometry relative="1" as="geometry">
            <mxPoint x="2863.0600000000004" y="2820" as="sourcePoint" />
            <mxPoint x="3010.0000000000005" y="2825.4900000000002" as="targetPoint" />
            <Array as="points">
              <mxPoint x="2863" y="2880" />
              <mxPoint x="2580" y="2880" />
            </Array>
          </mxGeometry>
        </mxCell>
        <mxCell id="G3aUP-0yOjeHawGO9L9T-231" value="&lt;div&gt;adjacenzy&lt;/div&gt;" style="edgeLabel;resizable=0;html=1;align=left;verticalAlign=bottom;" connectable="0" vertex="1" parent="G3aUP-0yOjeHawGO9L9T-230">
          <mxGeometry x="-1" relative="1" as="geometry">
            <mxPoint y="20" as="offset" />
          </mxGeometry>
        </mxCell>
        <mxCell id="G3aUP-0yOjeHawGO9L9T-232" value="&lt;div&gt;adjacenzy&lt;/div&gt;" style="edgeLabel;resizable=0;html=1;align=right;verticalAlign=bottom;" connectable="0" vertex="1" parent="G3aUP-0yOjeHawGO9L9T-230">
          <mxGeometry x="1" relative="1" as="geometry" />
        </mxCell>
        <mxCell id="G3aUP-0yOjeHawGO9L9T-233" value="" style="endArrow=none;html=1;edgeStyle=orthogonalEdgeStyle;exitX=1;exitY=0.25;exitDx=0;exitDy=0;" edge="1" parent="1" target="G3aUP-0yOjeHawGO9L9T-100">
          <mxGeometry relative="1" as="geometry">
            <mxPoint x="2990" y="2820" as="sourcePoint" />
            <mxPoint x="3136.9400000000005" y="2825.4900000000002" as="targetPoint" />
            <Array as="points">
              <mxPoint x="2990" y="2890" />
              <mxPoint x="2120" y="2890" />
              <mxPoint x="2120" y="3015" />
            </Array>
          </mxGeometry>
        </mxCell>
        <mxCell id="G3aUP-0yOjeHawGO9L9T-234" value="&lt;div&gt;adjacenzy&lt;/div&gt;" style="edgeLabel;resizable=0;html=1;align=left;verticalAlign=bottom;" connectable="0" vertex="1" parent="G3aUP-0yOjeHawGO9L9T-233">
          <mxGeometry x="-1" relative="1" as="geometry">
            <mxPoint y="28" as="offset" />
          </mxGeometry>
        </mxCell>
        <mxCell id="G3aUP-0yOjeHawGO9L9T-235" value="&lt;div&gt;adjacenzy&lt;/div&gt;" style="edgeLabel;resizable=0;html=1;align=right;verticalAlign=bottom;" connectable="0" vertex="1" parent="G3aUP-0yOjeHawGO9L9T-233">
          <mxGeometry x="1" relative="1" as="geometry">
            <mxPoint x="60" as="offset" />
          </mxGeometry>
        </mxCell>
        <mxCell id="G3aUP-0yOjeHawGO9L9T-236" value="" style="endArrow=none;html=1;edgeStyle=orthogonalEdgeStyle;exitX=1;exitY=0.25;exitDx=0;exitDy=0;entryX=0.003;entryY=0.605;entryDx=0;entryDy=0;entryPerimeter=0;" edge="1" parent="1" target="G3aUP-0yOjeHawGO9L9T-102">
          <mxGeometry relative="1" as="geometry">
            <mxPoint x="2370" y="3021.26" as="sourcePoint" />
            <mxPoint x="2516.9400000000005" y="3026.75" as="targetPoint" />
            <Array as="points">
              <mxPoint x="2370" y="3027" />
              <mxPoint x="2531" y="3027" />
            </Array>
          </mxGeometry>
        </mxCell>
        <mxCell id="G3aUP-0yOjeHawGO9L9T-237" value="&lt;div&gt;adjacenzy&lt;/div&gt;" style="edgeLabel;resizable=0;html=1;align=left;verticalAlign=bottom;" connectable="0" vertex="1" parent="G3aUP-0yOjeHawGO9L9T-236">
          <mxGeometry x="-1" relative="1" as="geometry">
            <mxPoint y="28" as="offset" />
          </mxGeometry>
        </mxCell>
        <mxCell id="G3aUP-0yOjeHawGO9L9T-238" value="&lt;div&gt;adjacenzy&lt;/div&gt;" style="edgeLabel;resizable=0;html=1;align=right;verticalAlign=bottom;" connectable="0" vertex="1" parent="G3aUP-0yOjeHawGO9L9T-236">
          <mxGeometry x="1" relative="1" as="geometry" />
        </mxCell>
        <mxCell id="G3aUP-0yOjeHawGO9L9T-239" value="" style="endArrow=none;html=1;edgeStyle=orthogonalEdgeStyle;exitX=1;exitY=0.25;exitDx=0;exitDy=0;" edge="1" parent="1">
          <mxGeometry relative="1" as="geometry">
            <mxPoint x="2689.470000000001" y="3021.13" as="sourcePoint" />
            <mxPoint x="2840" y="3024.000000000001" as="targetPoint" />
            <Array as="points">
              <mxPoint x="2689" y="3027" />
              <mxPoint x="2840" y="3027" />
            </Array>
          </mxGeometry>
        </mxCell>
        <mxCell id="G3aUP-0yOjeHawGO9L9T-240" value="&lt;div&gt;adjacenzy&lt;/div&gt;" style="edgeLabel;resizable=0;html=1;align=left;verticalAlign=bottom;" connectable="0" vertex="1" parent="G3aUP-0yOjeHawGO9L9T-239">
          <mxGeometry x="-1" relative="1" as="geometry">
            <mxPoint y="28" as="offset" />
          </mxGeometry>
        </mxCell>
        <mxCell id="G3aUP-0yOjeHawGO9L9T-241" value="&lt;div&gt;adjacenzy&lt;/div&gt;" style="edgeLabel;resizable=0;html=1;align=right;verticalAlign=bottom;" connectable="0" vertex="1" parent="G3aUP-0yOjeHawGO9L9T-239">
          <mxGeometry x="1" relative="1" as="geometry" />
        </mxCell>
        <mxCell id="G3aUP-0yOjeHawGO9L9T-242" value="" style="endArrow=none;html=1;edgeStyle=orthogonalEdgeStyle;exitX=0.551;exitY=-0.014;exitDx=0;exitDy=0;exitPerimeter=0;" edge="1" parent="1" source="G3aUP-0yOjeHawGO9L9T-42">
          <mxGeometry relative="1" as="geometry">
            <mxPoint x="1650" y="1610" as="sourcePoint" />
            <mxPoint x="1750" y="920" as="targetPoint" />
            <Array as="points">
              <mxPoint x="1674" y="1446" />
              <mxPoint x="1750" y="1446" />
              <mxPoint x="1750" y="920" />
            </Array>
          </mxGeometry>
        </mxCell>
        <mxCell id="G3aUP-0yOjeHawGO9L9T-243" value="&lt;div&gt;board&lt;/div&gt;" style="edgeLabel;resizable=0;html=1;align=left;verticalAlign=bottom;" connectable="0" vertex="1" parent="G3aUP-0yOjeHawGO9L9T-242">
          <mxGeometry x="-1" relative="1" as="geometry">
            <mxPoint x="5" as="offset" />
          </mxGeometry>
        </mxCell>
        <mxCell id="G3aUP-0yOjeHawGO9L9T-244" value="game" style="edgeLabel;resizable=0;html=1;align=right;verticalAlign=bottom;" connectable="0" vertex="1" parent="1">
          <mxGeometry x="1799.9988235294127" y="939.9994208676972" as="geometry" />
        </mxCell>
        <mxCell id="G3aUP-0yOjeHawGO9L9T-245" value="&lt;font style=&quot;font-size: 70px&quot;&gt;Lose Game&lt;br&gt;&lt;/font&gt;" style="text;html=1;strokeColor=none;fillColor=none;align=center;verticalAlign=middle;whiteSpace=wrap;rounded=0;" vertex="1" parent="1">
          <mxGeometry x="1450" y="470" width="510" height="140" as="geometry" />
        </mxCell>
        <mxCell id="G3aUP-0yOjeHawGO9L9T-246" value="Start" style="text;html=1;strokeColor=none;fillColor=none;align=center;verticalAlign=middle;whiteSpace=wrap;rounded=0;fontSize=70;" vertex="1" parent="1">
          <mxGeometry x="610" y="910" width="40" height="20" as="geometry" />
        </mxCell>
        <mxCell id="G3aUP-0yOjeHawGO9L9T-247" value="" style="endArrow=none;html=1;edgeStyle=orthogonalEdgeStyle;exitX=0.5;exitY=1;exitDx=0;exitDy=0;entryX=-0.026;entryY=0.361;entryDx=0;entryDy=0;entryPerimeter=0;" edge="1" parent="1" source="G3aUP-0yOjeHawGO9L9T-4" target="G3aUP-0yOjeHawGO9L9T-53">
          <mxGeometry relative="1" as="geometry">
            <mxPoint x="730" y="1780" as="sourcePoint" />
            <mxPoint x="490" y="2490" as="targetPoint" />
            <Array as="points">
              <mxPoint x="675" y="2325" />
              <mxPoint x="960" y="2325" />
              <mxPoint x="960" y="3011" />
            </Array>
          </mxGeometry>
        </mxCell>
        <mxCell id="G3aUP-0yOjeHawGO9L9T-248" value="man" style="edgeLabel;resizable=0;html=1;align=left;verticalAlign=bottom;" connectable="0" vertex="1" parent="G3aUP-0yOjeHawGO9L9T-247">
          <mxGeometry x="-1" relative="1" as="geometry">
            <mxPoint x="5" y="20" as="offset" />
          </mxGeometry>
        </mxCell>
        <mxCell id="G3aUP-0yOjeHawGO9L9T-249" value="&lt;div&gt;pos&lt;/div&gt;" style="edgeLabel;resizable=0;html=1;align=right;verticalAlign=bottom;" connectable="0" vertex="1" parent="G3aUP-0yOjeHawGO9L9T-247">
          <mxGeometry x="1" relative="1" as="geometry">
            <mxPoint x="-6" as="offset" />
          </mxGeometry>
        </mxCell>
        <mxCell id="G3aUP-0yOjeHawGO9L9T-250" value="" style="endArrow=none;html=1;edgeStyle=orthogonalEdgeStyle;exitX=0.596;exitY=1;exitDx=0;exitDy=0;exitPerimeter=0;entryX=0;entryY=0.25;entryDx=0;entryDy=0;" edge="1" parent="1" target="G3aUP-0yOjeHawGO9L9T-95">
          <mxGeometry relative="1" as="geometry">
            <mxPoint x="1039.996" y="1670" as="sourcePoint" />
            <mxPoint x="2840" y="2522.5" as="targetPoint" />
            <Array as="points">
              <mxPoint x="1040" y="2030" />
              <mxPoint x="2820" y="2030" />
              <mxPoint x="2820" y="2523" />
            </Array>
          </mxGeometry>
        </mxCell>
        <mxCell id="G3aUP-0yOjeHawGO9L9T-251" value="man" style="edgeLabel;resizable=0;html=1;align=left;verticalAlign=bottom;" connectable="0" vertex="1" parent="G3aUP-0yOjeHawGO9L9T-250">
          <mxGeometry x="-1" relative="1" as="geometry">
            <mxPoint x="5" y="20" as="offset" />
          </mxGeometry>
        </mxCell>
        <mxCell id="G3aUP-0yOjeHawGO9L9T-252" value="&lt;div&gt;pos&lt;/div&gt;" style="edgeLabel;resizable=0;html=1;align=right;verticalAlign=bottom;" connectable="0" vertex="1" parent="G3aUP-0yOjeHawGO9L9T-250">
          <mxGeometry x="1" relative="1" as="geometry">
            <mxPoint y="-2" as="offset" />
          </mxGeometry>
        </mxCell>
        <mxCell id="G3aUP-0yOjeHawGO9L9T-253" value="" style="endArrow=none;html=1;edgeStyle=orthogonalEdgeStyle;exitX=0.596;exitY=1;exitDx=0;exitDy=0;entryX=-0.019;entryY=0.382;entryDx=0;entryDy=0;exitPerimeter=0;entryPerimeter=0;" edge="1" parent="1" target="G3aUP-0yOjeHawGO9L9T-102">
          <mxGeometry relative="1" as="geometry">
            <mxPoint x="1389.9959999999992" y="1670" as="sourcePoint" />
            <mxPoint x="1170" y="3002.5" as="targetPoint" />
            <Array as="points">
              <mxPoint x="1390" y="1980" />
              <mxPoint x="2170" y="1980" />
              <mxPoint x="2170" y="2940" />
              <mxPoint x="2500" y="2940" />
              <mxPoint x="2500" y="3004" />
            </Array>
          </mxGeometry>
        </mxCell>
        <mxCell id="G3aUP-0yOjeHawGO9L9T-254" value="man" style="edgeLabel;resizable=0;html=1;align=left;verticalAlign=bottom;" connectable="0" vertex="1" parent="G3aUP-0yOjeHawGO9L9T-253">
          <mxGeometry x="-1" relative="1" as="geometry">
            <mxPoint x="5" y="20" as="offset" />
          </mxGeometry>
        </mxCell>
        <mxCell id="G3aUP-0yOjeHawGO9L9T-255" value="&lt;div&gt;pos&lt;/div&gt;" style="edgeLabel;resizable=0;html=1;align=right;verticalAlign=bottom;" connectable="0" vertex="1" parent="G3aUP-0yOjeHawGO9L9T-253">
          <mxGeometry x="1" relative="1" as="geometry">
            <mxPoint x="3" as="offset" />
          </mxGeometry>
        </mxCell>
        <mxCell id="G3aUP-0yOjeHawGO9L9T-256" value="" style="endArrow=none;html=1;edgeStyle=orthogonalEdgeStyle;exitX=0.596;exitY=1;exitDx=0;exitDy=0;exitPerimeter=0;entryX=0;entryY=0.5;entryDx=0;entryDy=0;" edge="1" parent="1" target="G3aUP-0yOjeHawGO9L9T-43">
          <mxGeometry relative="1" as="geometry">
            <mxPoint x="2009.9959999999992" y="1650" as="sourcePoint" />
            <mxPoint x="1710" y="2840" as="targetPoint" />
            <Array as="points">
              <mxPoint x="2010" y="1700" />
              <mxPoint x="230" y="1700" />
              <mxPoint x="230" y="2545" />
            </Array>
          </mxGeometry>
        </mxCell>
        <mxCell id="G3aUP-0yOjeHawGO9L9T-257" value="man" style="edgeLabel;resizable=0;html=1;align=left;verticalAlign=bottom;" connectable="0" vertex="1" parent="G3aUP-0yOjeHawGO9L9T-256">
          <mxGeometry x="-1" relative="1" as="geometry">
            <mxPoint x="5" y="20" as="offset" />
          </mxGeometry>
        </mxCell>
        <mxCell id="G3aUP-0yOjeHawGO9L9T-258" value="&lt;div&gt;pos&lt;/div&gt;" style="edgeLabel;resizable=0;html=1;align=right;verticalAlign=bottom;" connectable="0" vertex="1" parent="G3aUP-0yOjeHawGO9L9T-256">
          <mxGeometry x="1" relative="1" as="geometry">
            <mxPoint x="-10" y="-5" as="offset" />
          </mxGeometry>
        </mxCell>
        <mxCell id="G3aUP-0yOjeHawGO9L9T-259" value="" style="endArrow=none;html=1;edgeStyle=orthogonalEdgeStyle;exitX=0.426;exitY=1.019;exitDx=0;exitDy=0;exitPerimeter=0;entryX=0.25;entryY=0;entryDx=0;entryDy=0;" edge="1" parent="1" target="G3aUP-0yOjeHawGO9L9T-44">
          <mxGeometry relative="1" as="geometry">
            <mxPoint x="2348.8860000000004" y="1642.0900000000006" as="sourcePoint" />
            <mxPoint x="2060.0599999999995" y="2513" as="targetPoint" />
            <Array as="points">
              <mxPoint x="2349" y="1710" />
              <mxPoint x="2200" y="1710" />
              <mxPoint x="2200" y="2080" />
              <mxPoint x="720" y="2080" />
            </Array>
          </mxGeometry>
        </mxCell>
        <mxCell id="G3aUP-0yOjeHawGO9L9T-260" value="man" style="edgeLabel;resizable=0;html=1;align=left;verticalAlign=bottom;" connectable="0" vertex="1" parent="G3aUP-0yOjeHawGO9L9T-259">
          <mxGeometry x="-1" relative="1" as="geometry">
            <mxPoint x="5" y="20" as="offset" />
          </mxGeometry>
        </mxCell>
        <mxCell id="G3aUP-0yOjeHawGO9L9T-261" value="&lt;div&gt;pos&lt;/div&gt;" style="edgeLabel;resizable=0;html=1;align=right;verticalAlign=bottom;" connectable="0" vertex="1" parent="G3aUP-0yOjeHawGO9L9T-259">
          <mxGeometry x="1" relative="1" as="geometry">
            <mxPoint x="20" y="-3" as="offset" />
          </mxGeometry>
        </mxCell>
        <mxCell id="G3aUP-0yOjeHawGO9L9T-262" value="" style="endArrow=none;html=1;edgeStyle=orthogonalEdgeStyle;exitX=0.5;exitY=1;exitDx=0;exitDy=0;" edge="1" parent="1" source="G3aUP-0yOjeHawGO9L9T-9" target="G3aUP-0yOjeHawGO9L9T-45">
          <mxGeometry relative="1" as="geometry">
            <mxPoint x="2358.886" y="1652.0900000000001" as="sourcePoint" />
            <mxPoint x="2070" y="2750" as="targetPoint" />
            <Array as="points">
              <mxPoint x="2746" y="2060" />
              <mxPoint x="2450" y="2060" />
              <mxPoint x="2450" y="2120" />
              <mxPoint x="1030" y="2120" />
            </Array>
          </mxGeometry>
        </mxCell>
        <mxCell id="G3aUP-0yOjeHawGO9L9T-263" value="man" style="edgeLabel;resizable=0;html=1;align=left;verticalAlign=bottom;" connectable="0" vertex="1" parent="G3aUP-0yOjeHawGO9L9T-262">
          <mxGeometry x="-1" relative="1" as="geometry">
            <mxPoint x="5" y="20" as="offset" />
          </mxGeometry>
        </mxCell>
        <mxCell id="G3aUP-0yOjeHawGO9L9T-264" value="&lt;div&gt;pos&lt;/div&gt;" style="edgeLabel;resizable=0;html=1;align=right;verticalAlign=bottom;" connectable="0" vertex="1" parent="G3aUP-0yOjeHawGO9L9T-262">
          <mxGeometry x="1" relative="1" as="geometry">
            <mxPoint x="20" y="-3" as="offset" />
          </mxGeometry>
        </mxCell>
        <mxCell id="G3aUP-0yOjeHawGO9L9T-265" value="" style="endArrow=none;html=1;edgeStyle=orthogonalEdgeStyle;exitX=0.5;exitY=1;exitDx=0;exitDy=0;entryX=1;entryY=0.5;entryDx=0;entryDy=0;" edge="1" parent="1" source="G3aUP-0yOjeHawGO9L9T-10" target="G3aUP-0yOjeHawGO9L9T-46">
          <mxGeometry relative="1" as="geometry">
            <mxPoint x="2358.886" y="1652.0900000000001" as="sourcePoint" />
            <mxPoint x="890" y="2680" as="targetPoint" />
            <Array as="points">
              <mxPoint x="2016" y="1950" />
              <mxPoint x="2780" y="1950" />
              <mxPoint x="2780" y="2460" />
              <mxPoint x="1530" y="2460" />
              <mxPoint x="1530" y="2555" />
            </Array>
          </mxGeometry>
        </mxCell>
        <mxCell id="G3aUP-0yOjeHawGO9L9T-266" value="man" style="edgeLabel;resizable=0;html=1;align=left;verticalAlign=bottom;" connectable="0" vertex="1" parent="G3aUP-0yOjeHawGO9L9T-265">
          <mxGeometry x="-1" relative="1" as="geometry">
            <mxPoint x="5" y="20" as="offset" />
          </mxGeometry>
        </mxCell>
        <mxCell id="G3aUP-0yOjeHawGO9L9T-267" value="&lt;div&gt;pos&lt;/div&gt;" style="edgeLabel;resizable=0;html=1;align=right;verticalAlign=bottom;" connectable="0" vertex="1" parent="G3aUP-0yOjeHawGO9L9T-265">
          <mxGeometry x="1" relative="1" as="geometry">
            <mxPoint x="31" y="-3" as="offset" />
          </mxGeometry>
        </mxCell>
        <mxCell id="G3aUP-0yOjeHawGO9L9T-268" value="" style="endArrow=none;html=1;edgeStyle=orthogonalEdgeStyle;exitX=0.75;exitY=1;exitDx=0;exitDy=0;" edge="1" parent="1" source="G3aUP-0yOjeHawGO9L9T-11">
          <mxGeometry relative="1" as="geometry">
            <mxPoint x="2410" y="1860" as="sourcePoint" />
            <mxPoint x="820" y="2800" as="targetPoint" />
            <Array as="points">
              <mxPoint x="2413" y="2060" />
              <mxPoint x="1890" y="2060" />
              <mxPoint x="1890" y="2670" />
              <mxPoint x="880" y="2670" />
              <mxPoint x="880" y="2800" />
            </Array>
          </mxGeometry>
        </mxCell>
        <mxCell id="G3aUP-0yOjeHawGO9L9T-269" value="man" style="edgeLabel;resizable=0;html=1;align=left;verticalAlign=bottom;" connectable="0" vertex="1" parent="G3aUP-0yOjeHawGO9L9T-268">
          <mxGeometry x="-1" relative="1" as="geometry">
            <mxPoint x="5" y="20" as="offset" />
          </mxGeometry>
        </mxCell>
        <mxCell id="G3aUP-0yOjeHawGO9L9T-270" value="&lt;div&gt;pos&lt;/div&gt;" style="edgeLabel;resizable=0;html=1;align=right;verticalAlign=bottom;" connectable="0" vertex="1" parent="G3aUP-0yOjeHawGO9L9T-268">
          <mxGeometry x="1" relative="1" as="geometry">
            <mxPoint x="20" y="20" as="offset" />
          </mxGeometry>
        </mxCell>
      </root>
    </mxGraphModel>
  </diagram>
</mxfile>
